<svg xmlns="http://www.w3.org/2000/svg" viewBox="0 0 265.404 265.404" enable-background="new 0 0 265.404 265.404"><linearGradient id="a"><stop offset="0%" stop-color="#2b56f5"/><stop offset="100%" stop-color="#46bdf4"/></linearGradient><g fill="url(#a)"><path d="M194.172 123.684l-78.08-51.122c-1.922-1.257-4.033-1.922-6.107-1.922-5.52 0-9.686 4.496-9.686 10.458v103.207c0 5.962 4.163 10.458 9.684 10.458 2.075 0 4.187-.665 6.106-1.923l78.082-51.13c3.25-2.128 5.117-5.414 5.116-9.013 0-3.6-1.864-6.883-5.116-9.013zM115.3 175.43V89.972l65.256 42.725-65.256 42.73zM132.702 0C59.53 0 0 59.53 0 132.703s59.53 132.702 132.702 132.702 132.702-59.53 132.702-132.702S205.874.002 132.702.002zm0 250.404c-64.9 0-117.702-52.8-117.702-117.702 0-64.9 52.8-117.7 117.702-117.7s117.702 52.8 117.702 117.7-52.8 117.702-117.702 117.702z"/></g></svg>