<svg width="512" height="125" viewBox="0 0 512 125" xmlns="http://www.w3.org/2000/svg" preserveAspectRatio="xMidYMid"><path d="M63.818 11.338H37.254V93.62H26.402V11.34H0V1.62h63.818v9.718zm50.05 16.522l-30.29 76.29c-5.345 13.605-12.957 20.408-22.676 20.408-2.753 0-5.02-.324-6.803-.81v-9.394c2.267.81 4.373 1.134 6.154 1.134 5.345 0 9.233-3.24 11.986-9.557l5.184-12.47-25.592-65.6h11.662L81.31 78.395c.163.648.65 2.268 1.297 5.022h.324c.163-.972.65-2.592 1.297-4.86l18.627-50.697h11.014zm17.17 56.205h-.325v39.683h-10.528V27.86h10.528v11.5h.324c5.183-8.747 12.796-13.12 22.676-13.12 8.423 0 15.064 2.915 19.76 8.746 4.698 5.83 7.128 13.768 7.128 23.65 0 11.013-2.752 19.76-8.098 26.4-5.345 6.64-12.634 9.88-21.866 9.88-8.26.325-14.902-3.4-19.6-10.85zm-.163-26.402v9.232c0 5.507 1.782 10.043 5.345 13.768 3.564 3.725 7.937 5.67 13.444 5.67 6.317 0 11.338-2.43 15.064-7.29 3.563-4.86 5.345-11.662 5.345-20.408 0-7.29-1.62-13.12-5.02-17.17-3.403-4.21-7.938-6.155-13.77-6.155-6.154 0-11.013 2.106-14.74 6.317-3.886 4.212-5.668 9.557-5.668 16.036zm114.192 5.67h-46.325c.162 7.288 2.106 12.957 5.83 17.006 3.727 4.048 8.91 5.992 15.55 5.992 7.452 0 14.254-2.43 20.41-7.29v9.882c-5.832 4.21-13.444 6.317-22.84 6.317-9.23 0-16.52-2.915-21.865-8.908-5.346-5.993-7.937-14.416-7.937-25.106 0-10.204 2.915-18.627 8.747-24.944 5.83-6.48 12.957-9.718 21.542-9.718 8.584 0 15.225 2.753 19.922 8.422 4.697 5.508 7.127 13.282 7.127 23.163l-.163 5.182zm-10.853-8.91c0-6.155-1.457-10.852-4.373-14.253-2.914-3.402-6.964-5.022-11.985-5.022-5.02 0-9.232 1.782-12.634 5.346-3.4 3.563-5.668 8.26-6.478 13.93h35.472zm16.036 35.96v-7.29c6.64 4.21 13.282 6.317 20.085 6.317 7.127 0 12.634-1.458 16.36-4.536 3.724-3.077 5.506-7.126 5.506-12.472 0-4.697-1.295-8.422-3.724-11.338-2.43-2.753-7.937-6.64-16.198-11.5-9.394-5.507-15.225-10.042-17.655-13.606-2.43-3.725-3.725-7.936-3.725-12.634 0-6.48 2.59-11.986 7.613-16.52C263.533 2.267 270.336 0 278.758 0c5.507 0 11.015.972 16.36 2.754v6.64c-5.345-2.43-11.176-3.725-17.33-3.725-6.318 0-11.178 1.62-14.903 4.696-3.726 3.24-5.507 7.127-5.507 11.986 0 4.698 1.296 8.423 3.725 11.177 2.43 2.752 7.937 6.64 16.198 11.337 8.584 4.86 14.253 9.232 17.17 12.958 2.914 3.725 4.21 8.098 4.21 13.12 0 7.126-2.43 12.796-7.29 17.33-4.858 4.536-11.823 6.642-20.73 6.642-3.24 0-6.804-.486-11.016-1.458-4.21-.973-7.288-1.783-9.394-3.078zm103.177.322c-4.86 2.916-10.69 4.536-17.493 4.536-8.908 0-16.197-3.077-21.704-9.232-5.507-6.155-8.26-14.092-8.26-24.134 0-10.366 3.077-18.95 9.232-25.592 6.155-6.64 14.09-10.042 23.81-10.042 5.02 0 9.88.972 14.577 3.077v6.64c-4.698-2.914-9.88-4.372-15.388-4.372-7.775 0-13.93 2.754-18.79 8.26-4.858 5.508-7.126 12.797-7.126 21.543 0 8.585 2.268 15.388 6.64 20.57 4.374 5.184 10.205 7.776 17.332 7.776 6.64 0 12.31-1.782 17.17-5.184v6.155zm39.198-56.69c-1.944-1.458-4.21-2.106-6.965-2.106-5.183 0-9.556 2.752-12.958 8.098-3.563 5.345-5.183 12.958-5.183 22.838v30.937h-5.832V27.86h5.83v14.577h.325c1.458-5.02 3.887-8.908 7.127-11.662 3.24-2.753 6.965-4.21 11.338-4.21 2.43 0 4.697.323 6.48 1.133v6.317h-.163zm9.395-22.677c-1.296 0-2.43-.486-3.402-1.458-.972-.97-1.458-2.105-1.458-3.563 0-1.458.486-2.592 1.458-3.4.972-.81 2.106-1.297 3.402-1.297 1.295 0 2.43.486 3.563 1.296.972.81 1.458 1.943 1.458 3.4 0 1.297-.485 2.593-1.457 3.564-1.134.972-2.268 1.458-3.563 1.458zm-2.916 82.283V27.86h5.83v65.76h-5.83zm26.078-11.66h-.324v41.95h-5.83V27.86h5.83v13.605h.324c2.43-4.86 5.67-8.584 10.042-11.176 4.374-2.592 9.233-3.888 14.416-3.888 8.423 0 14.902 2.915 19.6 8.584 4.696 5.83 6.964 13.606 6.964 23.487 0 11.014-2.754 19.922-8.1 26.725-5.344 6.803-12.47 10.205-21.218 10.205-9.718-.162-17.007-4.536-21.704-13.444zm-.324-24.46v8.26c0 6.642 2.106 12.31 6.155 17.01 4.21 4.696 9.556 7.126 16.36 7.126 6.64 0 12.147-2.916 16.36-8.585 4.21-5.83 6.316-13.28 6.316-22.675 0-8.26-1.945-14.74-5.832-19.6-3.888-4.858-8.91-7.288-15.388-7.288-7.613 0-13.606 2.592-17.817 7.775-4.21 5.183-6.155 11.014-6.155 17.98zM512 92.65c-3.078 1.457-5.993 2.105-8.585 2.105-9.718 0-14.577-5.83-14.577-17.493V33.367h-11.824v-5.345h11.824v-17.17l2.915-.972 2.916-.97V28.02H512v5.345h-17.33v43.41c0 4.534.647 7.773 2.104 9.88 1.458 2.105 3.888 3.077 7.29 3.077 2.43 0 5.02-.81 7.936-2.43v5.345z"/></svg>