<svg width="256" height="289" viewBox="0 0 256 289" xmlns="http://www.w3.org/2000/svg" preserveAspectRatio="xMidYMid"><path d="M128 288.464c-3.975 0-7.685-1.06-11.13-2.915l-35.247-20.937c-5.3-2.915-2.65-3.975-1.06-4.505 7.155-2.385 8.48-2.915 15.9-7.156.796-.53 1.856-.265 2.65.265l27.032 16.166c1.06.53 2.385.53 3.18 0l105.74-61.217c1.06-.53 1.59-1.59 1.59-2.915V83.08c0-1.324-.53-2.384-1.59-2.914l-105.74-60.953c-1.06-.53-2.385-.53-3.18 0L20.405 80.166c-1.06.53-1.59 1.855-1.59 2.915v122.17c0 1.06.53 2.386 1.59 2.916l28.887 16.695c15.636 7.952 25.44-1.324 25.44-10.6V93.68c0-1.59 1.326-3.18 3.18-3.18H91.43c1.59 0 3.18 1.326 3.18 3.18v120.58c0 20.937-11.397 33.127-31.273 33.127-6.095 0-10.865 0-24.38-6.625l-27.827-15.9C4.24 220.885 0 213.465 0 205.515V83.346C0 75.396 4.24 67.976 11.13 64L116.87 2.783c6.625-3.71 15.635-3.71 22.26 0L244.87 64C251.76 67.975 256 75.395 256 83.346v122.17c0 7.95-4.24 15.37-11.13 19.345l-105.74 61.22c-3.445 1.59-7.42 2.384-11.13 2.384zm32.596-84.01c-46.377 0-55.917-21.2-55.917-39.22 0-1.59 1.324-3.18 3.18-3.18h13.78c1.59 0 2.915 1.06 2.915 2.65 2.12 14.045 8.215 20.936 36.306 20.936 22.262 0 31.803-5.035 31.803-16.96 0-6.89-2.65-11.926-37.367-15.372-28.886-2.915-46.907-9.275-46.907-32.33 0-21.467 18.02-34.187 48.23-34.187 33.922 0 50.618 11.66 52.738 37.102 0 .795-.265 1.59-.795 2.385-.53.53-1.325 1.06-2.12 1.06h-13.78c-1.326 0-2.65-1.06-2.916-2.385-3.18-14.575-11.395-19.345-33.126-19.345-24.38 0-27.295 8.48-27.295 14.84 0 7.686 3.445 10.07 36.306 14.31 32.598 4.24 47.968 10.336 47.968 33.127-.265 23.32-19.345 36.57-53.002 36.57z"/></svg>