<svg width="512" height="205" viewBox="0 0 512 205" xmlns="http://www.w3.org/2000/svg" preserveAspectRatio="xMidYMid"><path d="M0 0v14.012h99.66V0H0zm113.78 0v14.012H255.8S241.293 0 222.08 0h-108.3zm169.88 0v14.012h85.92L364.48 0h-80.82zm147.52 0l-5.1 14.012h85.14V0h-80.04zM0 27.25v14.012h99.66V27.25H0zm113.78.02v13.992h158.5s-1.85-10.784-5.08-13.992H113.78zm169.88 0v13.992H379l-4.72-13.992h-90.62zm137.32 0l-4.72 13.992h94.96V27.27h-90.24zM28.64 54.5v14.03H71.8V54.5H28.64zm113.78 0v14.03h43.16V54.5h-43.16zm85.14 0v14.03h43.16s2.74-7.41 2.74-14.03h-45.9zm84.74 0v14.03h76.52l-5.1-14.03H312.3zm99.28 0l-5.12 14.03h76.9V54.5h-71.78zM28.64 81.77v14.01H71.8V81.77H28.64zm113.78 0v14.01h110.24s9.222-7.19 12.16-14.01h-122.4zm169.88 0v14.01h43.16v-7.8l2.74 7.8h79.06l2.94-7.8v7.8h43.16V81.77h-81.02l-4.3 11.868-4.32-11.87H312.3zM28.64 109.02v14.01H71.8v-14.01H28.64zm113.78 0v14.01h122.4c-2.94-6.8-12.16-14.01-12.16-14.01H142.42zm169.88 0v14.01h43.16v-14.01H312.3zm51 0l5.22 14.01h59.28l4.96-14.01H363.3zm76.9 0v14.01h43.16v-14.01H440.2zM28.64 136.27v14.01H71.8v-14.01H28.64zm113.78 0v14.01h43.16v-14.01h-43.16zm85.14 0v14.01h45.9c0-6.612-2.74-14.01-2.74-14.01h-43.16zm84.74 0v14.01h43.16v-14.01H312.3zm60.8 0l5.06 14.01h39.74l5.1-14.01h-49.9zm67.1 0v14.01h43.16v-14.01H440.2zM.78 163.517v14.032h99.66v-14.032H.78zm113 0v14.032H267.2c3.23-3.213 5.08-14.032 5.08-14.032h-158.5zm170.66 0v14.032h71.02v-14.032h-71.02zm98.48 0l5.2 14.032h20.22l4.88-14.032h-30.3zm57.28 0v14.032H512v-14.032h-71.8zM.78 190.788V204.8h99.66v-14.012H.78zm113 0v13.992h108.3c19.213 0 33.72-13.992 33.72-13.992H113.78zm170.66 0V204.8h71.02v-14.012h-71.02zm108.34 0l5 13.972.86.02 5.08-13.992h-10.94zm47.42 0V204.8H512v-14.012h-71.8z"/></svg>