<svg width="256" height="192" viewBox="0 0 256 192" xmlns="http://www.w3.org/2000/svg" preserveAspectRatio="xMidYMid"><path d="M198.75 31.302C181.264 12.072 156.04 0 128 0S74.737 12.072 57.25 31.302h141.5zM57.25 159.91c17.487 19.23 42.71 31.3 70.75 31.3s53.263-12.07 70.75-31.3H57.25zM42.463 39.43C19.012 39.43 0 58.444 0 81.897v27.42c0 23.452 19.012 42.464 42.464 42.464h171.072c23.452 0 42.464-19.012 42.464-42.464v-27.42c0-23.453-19.012-42.465-42.464-42.465H42.464zm209.168 41.98c0-20.772-16.84-37.61-37.61-37.61h-42.466c-20.772 0-37.61 16.838-37.61 37.61v28.512c0 20.773-16.84 37.612-37.612 37.612H214.02c20.773 0 37.612-16.84 37.612-37.612V81.41zM104.1 83.958v40.16h12.13v-40.16H104.1zm-1.215-12.678c0 3.987 3.232 7.22 7.22 7.22 3.986 0 7.218-3.233 7.218-7.22 0-3.987-3.232-7.22-7.22-7.22-3.986 0-7.218 3.233-7.218 7.22zM21.96 65.517l15.65 58.6h10.072L59.45 83.595l11.77 40.524h10.433l15.41-58.6h-11.77l-8.978 38.58-11.162-38.58H54.355l-11.163 37.61-8.492-37.61H21.96zm131.276 0v58.6h12.86v-22.93h29.12v-11.89h-29.12v-11.89h31.06v-11.89h-43.92zm52.656 18.44v40.16h12.133v-40.16h-12.133zm-1.092-12.8c0 3.988 3.232 7.22 7.22 7.22 3.986 0 7.218-3.232 7.218-7.22 0-3.986-3.232-7.218-7.22-7.218-3.986 0-7.218 3.23-7.218 7.218z" fill-rule="evenodd"/></svg>