<svg xmlns="http://www.w3.org/2000/svg"><symbol viewBox="0 0 302 204.27155" id="sprite-icon-adidas-logo"><path d="M277.983 203.645c-14.03 0-22.35-7.18-22.987-17.52h13.415c0 3.447 1.91 8.035 10.21 8.32 5.752 0 8.935-3.446 8.935-6.037-.636-4.018-5.752-4.303-10.845-5.18-5.753-.835-10.21-2-13.415-3.426-4.457-2.305-7.025-7.2-7.025-12.36 0-9.2 7.684-16.38 21.076-16.38 12.778 0 21.077 6.61 21.692 16.665h-12.756c0-2.57-.637-6.894-8.3-6.894-5.115 0-8.298.856-8.935 4.588 0 5.183 10.846 4.897 19.145 6.895 7.662 2.02 12.778 6.894 12.778 13.81 0 12.646-10.21 17.52-22.987 17.52" clip-path="url(#d)"/><path d="M33.537 118.8L77.58 93.222l23.622 40.53H41.836"/><path d="M126.15 202.12v-51.155" stroke="#fff" stroke-width="12.887584999999998"/><path d="M13.096 177.3c0 8.035 7.026 14.643 14.666 14.643 8.32 0 14.688-6.608 14.688-14.644 0-7.75-6.367-14.645-14.688-14.645-7.64 0-14.666 6.894-14.666 14.644m14.03 26.433c-14.03 0-26.15-11.79-26.15-26.434s12.12-26.15 26.15-26.15c5.75 0 10.867 1.45 15.324 4.59v-4.02h12.778v50.85H42.45v-3.162c-3.82 2.876-9.573 4.325-15.325 4.325" clip-path="url(#c)"/><path d="M197.59 133.74L136.314 26.863 180.354 1l76.602 132.74"/><path d="M71.825 177.3c0 8.035 6.39 14.643 14.688 14.643 7.64 0 14.688-6.608 14.688-14.644 0-7.75-7.047-14.645-14.687-14.645-8.3 0-14.688 6.894-14.688 14.644m14.05 26.433c-14.687 0-26.17-11.79-26.17-26.434s11.483-26.15 26.17-26.15c5.73 0 10.847 1.45 15.326 4.59V134.2h12.757v68.37H101.2v-3.162c-4.478 2.876-9.594 4.325-15.324 4.325" clip-path="url(#b)"/><path d="M85.247 73.12l44.678-25.27 49.158 85.887h-46.61v12.646h-12.757v-12.646"/><g clip-path="url(#a)"><path d="M292.692 146.782c-3.205 0-6.39-2.876-6.39-6.323s3.185-6.324 6.39-6.324c3.82 0 6.39 2.876 6.39 6.323s-2.57 6.322-6.39 6.322m0-11.768c-3.205 0-5.116 2.57-5.116 5.445s1.91 5.466 5.116 5.466c3.183 0 5.094-2.59 5.094-5.467s-1.91-5.446-5.094-5.446M294.01 143.927l-1.273-2.876h-1.274v2.877h-.966v-6.894h2.876c.637 0 1.91.878 1.91 2.02s-.636 1.712-1.273 1.998l1.273 2.877m-2.546-6.016h-1.274v2.285h1.274c1.273 0 1.273-.286 1.273-1.142 0-.593 0-1.142-1.273-1.142M208.385 177.3c0 8.035 6.39 14.643 14.688 14.643 7.662 0 14.666-6.608 14.666-14.644 0-7.75-7.005-14.645-14.667-14.645-8.3 0-14.688 6.894-14.688 14.644m14.03 26.433c-14.667 0-26.15-11.79-26.15-26.434s11.483-26.15 26.15-26.15c5.75 0 10.867 1.45 15.324 4.59v-4.02h12.14v50.85h-12.14v-3.162c-4.458 2.876-9.574 4.325-15.326 4.325"/><path d="M149.7 177.3c0 8.035 7.026 14.643 14.688 14.643 8.3 0 14.688-6.608 14.688-14.644 0-7.75-6.39-14.645-14.688-14.645-7.662 0-14.688 6.894-14.688 14.644m29.376-43.1h12.756v68.37h-12.756v-3.162c-3.842 2.876-8.958 4.325-14.688 4.325-14.688 0-26.807-11.79-26.807-26.434s12.12-26.15 26.808-26.15c5.73 0 10.846 1.45 14.688 4.59V134.2z"/></g></symbol><symbol viewBox="0 0 505.145 505.145" id="sprite-icon-android"><path d="M68.54 164.715h-1.293c-16.588 0-30.113 13.568-30.113 30.113v131.107c0 16.61 13.525 30.134 30.113 30.134h1.316c16.588 0 30.113-13.57 30.113-30.135V194.827c-.022-16.544-13.568-30.112-30.135-30.112zM113.085 376.54c0 15.23 12.446 27.632 27.675 27.632h29.574v70.817c0 16.63 13.568 30.155 30.113 30.155h1.294c16.61 0 30.157-13.546 30.157-30.156V404.17h41.33v70.817c0 16.63 13.61 30.155 30.156 30.155h1.273c16.61 0 30.134-13.546 30.134-30.156V404.17h29.595c15.207 0 27.654-12.403 27.654-27.632V169.525H113.084V376.54zM322.04 43.983l23.492-36.26c1.51-2.287.84-5.414-1.467-6.903-2.286-1.51-5.414-.884-6.903 1.467L312.81 39.8c-18.27-7.486-38.677-11.692-60.227-11.692-21.57 0-41.934 4.206-60.247 11.69l-24.31-37.51C166.538-.065 163.388-.69 161.08.82c-2.308 1.488-2.977 4.616-1.467 6.903l23.512 36.26c-42.387 20.773-70.968 59.924-70.968 104.834 0 2.76.173 5.48.41 8.175H392.62c.237-2.696.388-5.414.388-8.175 0-44.91-28.602-84.06-70.967-104.834zM187.656 108.91c-7.442 0-13.482-5.996-13.482-13.46 0-7.462 6.04-13.438 13.482-13.438 7.485 0 13.482 5.975 13.482 13.44s-6.04 13.46-13.482 13.46zm129.835 0c-7.442 0-13.482-5.996-13.482-13.46 0-7.462 6.04-13.438 13.482-13.438 7.463 0 13.46 5.975 13.46 13.44 0 7.462-5.997 13.46-13.46 13.46zM437.876 164.715h-1.25c-16.59 0-30.157 13.568-30.157 30.113v131.107c0 16.61 13.59 30.134 30.155 30.134h1.273c16.61 0 30.113-13.57 30.113-30.135V194.827c0-16.544-13.546-30.112-30.134-30.112z"/></symbol><symbol viewBox="0 0 512 211" id="sprite-icon-apple-pay"><path d="M93.552 27.103c-6 7.1-15.602 12.702-25.203 11.9-1.2-9.6 3.5-19.8 9-26.102C83.35 5.6 93.852.4 102.353 0c1 10-2.9 19.802-8.8 27.103zm8.7 13.802c-13.9-.8-25.802 7.9-32.403 7.9-6.7 0-16.803-7.5-27.804-7.3-14.3.2-27.603 8.3-34.904 21.202-15.002 25.803-3.9 64.008 10.6 85.01 7.102 10.4 15.603 21.802 26.804 21.402 10.602-.4 14.802-6.9 27.604-6.9 12.9 0 16.602 6.9 27.803 6.7 11.6-.2 18.902-10.402 26.003-20.803 8.1-11.8 11.4-23.303 11.6-23.903-.2-.2-22.4-8.7-22.6-34.304-.202-21.402 17.5-31.603 18.3-32.203-10-14.802-25.602-16.402-31.003-16.802zm80.31-29.004v155.92h24.203v-53.307h33.504c30.602 0 52.105-21.002 52.105-51.406 0-30.403-21.103-51.206-51.306-51.206H182.56zm24.203 20.404h27.903c21.003 0 33.004 11.2 33.004 30.903 0 19.702-12 31.004-33.104 31.004h-27.803V32.305zM336.58 169.02c15.202 0 29.303-7.702 35.704-19.903h.5v18.702h22.403V90.21c0-22.502-18.002-37.004-45.706-37.004-25.702 0-44.704 14.702-45.404 34.904h21.803c1.8-9.6 10.7-15.902 22.9-15.902 14.803 0 23.104 6.9 23.104 19.603v8.602l-30.204 1.8c-28.103 1.7-43.304 13.2-43.304 33.204 0 20.202 15.7 33.603 38.204 33.603zm6.5-18.503c-12.9 0-21.102-6.2-21.102-15.702 0-9.8 7.9-15.5 23.003-16.4l26.904-1.702v8.8c0 14.603-12.4 25.004-28.803 25.004zm82.01 59.707c23.603 0 34.704-9 44.405-36.304L512 54.706h-24.603l-28.503 92.11h-.5l-28.503-92.11H404.59l41.004 113.513-2.2 6.9c-3.7 11.7-9.7 16.202-20.402 16.202-1.9 0-5.6-.2-7.1-.4v18.702c1.4.4 7.4.6 9.2.6z"/></symbol><symbol viewBox="0 0 305 305" id="sprite-icon-apple"><g><path d="M40.738 112.12c-25.785 44.744-9.393 112.647 19.12 153.82C74.093 286.522 88.503 305 108.24 305c.373 0 .746-.007 1.128-.022 9.273-.37 15.974-3.225 22.453-5.984 7.273-3.1 14.796-6.305 26.596-6.305 11.226 0 18.39 3.1 25.318 6.098 6.828 2.954 13.86 6.01 24.253 5.815 22.232-.414 35.882-20.352 47.925-37.94 12.567-18.366 18.87-36.197 20.998-43.01l.086-.272c.405-1.21-.167-2.532-1.328-3.065-.032-.015-.15-.064-.183-.078-3.915-1.6-38.257-16.836-38.618-58.36-.335-33.736 25.763-51.6 30.997-54.84l.244-.15c.567-.366.962-.945 1.096-1.607.134-.66-.006-1.35-.386-1.905-18.014-26.362-45.624-30.335-56.74-30.813-1.613-.16-3.278-.242-4.95-.242-13.056 0-25.563 4.93-35.61 8.893-6.937 2.735-12.928 5.097-17.06 5.097-4.643 0-10.668-2.39-17.645-5.16-9.33-3.702-19.905-7.898-31.1-7.898-.267 0-.53.003-.79.008-26.03.383-50.625 15.275-64.185 38.86z"/><path d="M212.1.002c-15.762.642-34.67 10.345-45.973 23.583-9.605 11.127-18.988 29.68-16.516 48.38.156 1.17 1.108 2.072 2.285 2.163 1.064.083 2.15.125 3.232.126 15.413 0 32.04-8.527 43.395-22.257 11.95-14.498 17.994-33.104 16.166-49.77C214.544.92 213.395-.05 212.1.002z"/></g></symbol><symbol viewBox="0 0 37.866 37.866" id="sprite-icon-bitcoin"><path d="M24.617 19.115c-.377-.22-.922-.418-1.635-.6.664-.227 1.198-.51 1.604-.856.404-.347.715-.744.93-1.194.216-.45.322-.927.322-1.43 0-.69-.202-1.324-.61-1.902-.405-.578-.986-1.02-1.742-1.33-.292-.12-.64-.21-1.02-.283V8.84H19.89v2.5h-1.656v-2.5h-2.576v2.5h-3.93v2.105h.6c.4 0 .67.036.813.11s.243.17.3.293c.06.124.088.41.088.86v8.482c0 .443-.03.73-.087.856-.058.127-.157.226-.3.294-.14.07-.412.104-.81.104h-.6v2.104h3.928v2.502h2.576v-2.502H19.7l.19-.002v2.504h2.574v-2.72c.434-.083.813-.187 1.138-.317.89-.353 1.577-.873 2.062-1.552.485-.68.73-1.424.73-2.23 0-.676-.16-1.288-.48-1.837-.32-.543-.752-.97-1.297-1.275zm-7.327-5.32h1.667c.975 0 1.65.06 2.028.18.38.12.667.32.867.604.2.283.3.624.3 1.023 0 .386-.104.726-.315 1.02s-.524.516-.942.66c-.417.146-1.062.22-1.936.22H17.29l-.002-3.71zM22 23.19c-.298.38-.658.63-1.083.748-.425.12-.96.18-1.604.18h-1.11c-.37 0-.597-.02-.68-.06-.084-.04-.144-.11-.18-.213-.03-.08-.047-.353-.054-.816v-3.296h1.968c.862 0 1.505.08 1.926.24.42.16.735.396.945.71.21.312.315.693.315 1.145.002.53-.148.983-.446 1.36zm14.35-10.993c.375-.342.707-.733.957-1.19.585-1.076.716-2.315.37-3.49-.57-1.935-2.377-3.287-4.394-3.287-.438 0-.876.063-1.3.188-.296.087-.577.203-.845.343C24.678-.773 15.3-1.242 8.328 3.625c-6.955 4.854-9.75 13.788-6.817 21.75C.256 26.518-.325 28.31.187 30.048c.57 1.935 2.378 3.286 4.394 3.286.438 0 .875-.062 1.298-.188.276-.082.538-.19.79-.317.054.098.118.19.207.268 3.482 2.987 7.812 4.5 12.157 4.5 3.72 0 7.448-1.107 10.666-3.353 6.975-4.867 9.77-13.84 6.793-21.816-.033-.093-.09-.162-.14-.233zm-3.8-5.86c.24-.07.485-.106.732-.106 1.135 0 2.152.764 2.476 1.855.194.662.12 1.36-.208 1.966-.33.607-.876 1.048-1.538 1.244-1.343.395-2.816-.418-3.21-1.746-.194-.663-.12-1.36.21-1.967.33-.607.876-1.048 1.538-1.243zM5.312 31.227c-1.34.4-2.816-.417-3.208-1.746-.403-1.364.38-2.805 1.747-3.208.24-.068.487-.105.733-.105 1.136 0 2.154.763 2.476 1.854.194.663.12 1.36-.21 1.967-.33.604-.875 1.046-1.538 1.24zm23.242 1.374c-6.23 4.348-14.605 3.927-20.375-1.02 0 0-.002 0-.002-.003.157-.2.306-.406.43-.635.585-1.074.717-2.312.37-3.486-.57-1.937-2.378-3.287-4.394-3.287-.438 0-.875.06-1.3.187h-.002c-2.428-7.025.075-14.824 6.19-19.093C15.617.974 23.85 1.337 29.61 6.1c-.125.17-.252.336-.354.523-.585 1.075-.717 2.313-.37 3.487.57 1.937 2.378 3.287 4.396 3.287.438 0 .875-.062 1.3-.188.02-.007.038-.02.06-.025 2.615 7.107.12 15.082-6.088 19.416z"/></symbol><symbol viewBox="0 0 201.99998 67.488425" id="sprite-icon-Coca-Cola-logo"><path d="M168.12 56.832c-.003 0-.62.55-.62.55-.878.785-1.783 1.627-2.876 1.206-.3-.11-.514-.512-.565-.824-.05-2.25.963-4.336 1.946-6.366l.252-.53c2.827-4.72 6.113-10.283 10.94-14.143.812-.587 1.695-1.08 2.626-.695.214.2.464.548.464.896 0 .11-.098.402-.154.493-1.348 2.177-2.632 4.464-3.88 6.66-2.44 4.336-4.97 8.818-8.134 12.752zm-26.15-11.124c-.184.13-3.444-.97-4.074-3.988-.534-2.6 1.255-4.63 2.987-5.654.743-.585 1.863-.786 2.684-.495.762.514.97 1.43.97 2.416 0 .605-.082 1.227-.152 1.794l-.016.128c-.544 2.03-1.376 4.025-2.4 5.8zm-12.453 12.277c-.333-.494-.443-1.034-.454-1.618-.064-3.588 3.796-10.012 6.52-13.512h.007c1.142 2.5 3.727 4.107 5.288 4.784-1.94 4.317-8.587 13.565-11.36 10.345zm47.054.637c-.644.44-1.55.102-1.212-.904.844-2.562 4.2-7.782 4.2-7.782l9.35-16.582h-6.404c-.304.5-.955 1.648-.955 1.648-.298-.493-1.183-1.59-1.548-1.828-1.565-.99-3.86-.52-5.444.375-6.885 4.025-11.908 11.98-15.87 18.18 0 0-4.17 6.896-6.485 7.41-1.807.146-1.62-2.29-1.542-2.856.7-4.1 2.322-7.996 3.957-11.527 3.325-2.305 7.12-5.324 10.57-8.636 7.484-7.153 13.793-15.26 14.715-17.07 0 0-.998.202-2.177.238-5.758 8.032-17.54 19.706-21.113 21.443 1.583-3.805 11.807-21.973 20.508-30.663l1.37-1.318c2.116-2.068 4.31-4.19 6.02-4.538.18-.018.412 0 .613.42.077 1.61-.523 2.8-1.21 4.154l-.964 1.977s1.364-.257 2.26-.55c1.04-1.957 2.192-4.153 1.767-6.77-.14-.84-.75-1.48-1.547-1.628-2.595-.494-5.424 1.427-7.7 2.983l-.092.054c-11.7 9.167-21.58 22.377-30.218 40.417-.626.474-3.045 1.042-3.456.767.853-1.756 1.927-4.117 2.465-6.678.092-.733.178-1.483.178-2.215 0-1.574-.378-3.056-1.79-4.08-1.653-.824-3.697-.44-5.075.183-6.175 2.56-10.79 8.892-14.12 14.106-1.79 3.312-3.576 6.86-4.07 10.923-.35 3.183.36 5.232 2.17 6.257 1.86.95 4.204-.038 5.124-.513 6.255-3.292 10.626-9.897 14.07-15.935.138-.018 2.02-.072 3.442-.44.018 0 .026 0 .057.02-.08.274-.816 2.47-.816 2.47-2.183 6.403-3.193 10.758-1.13 13.338 2.947 3.64 7.826-.128 11.796-5.105-.852 5.964 2.24 6.898 4.595 6.44 2.708-.73 5.724-3.622 7.124-5.104-.45 1.738-.327 4.85 2.135 5.16 1.687.312 2.95-.606 4.41-1.393 5.243-2.854 11.52-12.365 13.148-15.115h-2.136c-2.316 3.5-5.263 8.09-8.97 10.268zM95.81 23.104h6l3.386-5.5h-6zm95.84-14.61c-4.574 2.597-9.316 4.28-15.057 3.695-1.59 1.792-3.14 3.64-4.568 5.543 8.057 2.05 16.6-2.507 21.363-6.842 5.04-4.372 7.624-9.88 7.624-9.88s-3.777 4.318-9.36 7.483zm-50.45-1.39c-.953 10.94-9.458 17.363-11.562 17.874-1.275.256-3.45-.31-1.51-4.903 2.862-6.185 7.746-11.435 12.986-14.125.128.458.124.75.087 1.153zm-16.57 27.57c-.61-1.316-2.057-2.158-3.598-2.067-5.006.458-9.902 4.575-12.473 10.484-1.35 3.04-2.086 5.545-2.57 9.534 1.557-1.793 4.732-4.738 8.335-6.35 0 .002.49-3.822 2.99-7.226.947-1.41 2.84-3.677 4.966-3.074 1.858.623 1.205 5.764-1.263 10.74-1.827 3.66-4.622 7.32-7.45 9.844-2.5 2.122-6.2 4.683-9.436 2.708-2.037-1.207-3.077-3.733-2.857-6.99.974-9.24 5.18-17.107 11.198-26.072 6.207-8.324 13.048-16.87 22.264-21.426 1.88-.95 3.62-1.17 5.125-.585 0 0-8.652 4.757-12.776 13.558-1.05 2.234-2.508 5.252-1.04 7.923.77 1.39 2.132 1.5 3.23 1.427 5.054-1.17 8.32-5.89 10.988-10.21 1.547-3.274 2.922-6.53 2.922-10.154 0-.44-.022-1.024-.06-1.464 2.415-1.28 7.367.988 7.367.988 3.87 1.28 12.11 7.594 14.89 8.8 1.356-1.572 3.584-3.95 4.84-5.14l-1.817-1.116c-2.908-1.775-5.98-3.458-9.006-5.123-6.87-3.75-12.462-2.432-15.308-1.408-1.12.403-2.142.75-2.142.75-2.112-2.305-5.576-2.086-8.128-1.463-9.178 2.633-17.7 9.055-26.836 20.198C100.267 30.485 96.1 38.024 93.88 45.47c-1.712 5.012-2.232 12.386 1.946 16.76 3.552 3.712 8.263 2.907 11.59 1.572 7.206-3.55 13.683-11.198 16.91-19.998.78-2.616 1.644-6.312.303-9.13zm-79.886-8.488c-.012.037-1.224 2.817-1.224 2.817-.175.147-.452.074-.77 0l-.544-.092c-1.708-.53-2.997-1.663-3.394-3.017-.548-2.635 1.703-4.702 2.695-5.452.95-.658 2.43-1.006 3.29-.33.53.624.73 1.428.73 2.307 0 1.19-.367 2.525-.783 3.77zm-2.603 5.287s-.054.165-.082.22c-.007 0-2.755 4.48-2.755 4.48-1.658 2.216-3.73 4.997-6.317 6.332-.768.257-1.828.422-2.37-.255-1.144-1.372-.554-3.275-.074-4.812l.17-.55c1.375-3.73 3.558-7.025 5.682-10.08.026-.02.086-.037.107-.037.006.02.015.02.018.056 1.333 2.56 3.833 3.75 5.702 4.3.012 0 .024.018.024.055 0 .055-.03.13-.103.293zm34.377-2.945c1.23-1.7 4.807-6.257 5.68-7.026 2.932-2.58 4.105-1.445 4.206-.64-2.738 4.903-5.97 10.52-9.007 15.57.006-.02-.95 1.445-.95 1.445-1.342 2.048-2.693 3.805-4.897 5.03-.315.093-.833.13-1.178-.128-.415-.275-.58-.733-.532-1.21.132-1.572 1.734-6.383 6.676-13.043zM46.052 17.404c-3.793-2.488-11.415 2.27-17.52 10.428-5.583 7.32-7.994 15.826-5.37 19.76 3.902 4.63 11.147-2.104 14.228-5.708l.398-.42c2.095-2.252 3.714-4.96 5.28-7.558 0 0 1.44-2.38 1.51-2.49.89-.163 1.96-.42 3.17-.767-.018.054-4.622 7.793-4.153 11.635.147 1.172.035 5.454 4.215 6.752 5.57.934 10.02-3.384 13.944-7.227 0 0 .67-.64 1.047-1.005l-.22.895c-1.63 5.672.568 6.862 1.943 7.3 4.156 1.21 9.122-4.83 9.138-4.83-.128 1.903-.505 3.477 1.5 4.74 1.893.677 3.808-.356 5.264-1.326 5.244-3.696 9.468-9.48 12.88-14.48h-2.177c-.025 0-5.37 7.747-8.84 9.43-.006 0-.638.325-1.002.07-.45-.386-.273-1.185.005-1.75.017-.038 13.4-23.25 13.4-23.25h-6.318s-.69 1.117-.747 1.19c-.042-.036-.143-.228-.214-.32-3.914-5.416-12.78 2.914-19.455 12.574-2.57 3.714-5.84 7.896-9.234 10.916 0 0-5.024 4.607-7.172 1.297-.785-1.39-.543-3.423-.1-4.76 2.5-7.116 6.808-13.575 11.71-17.473 1.385-1.078 2.89-1.39 3.635-.933.712.422.826 1.464.376 2.177-1.142-.035-2.057.312-2.8 1.08-1.466 1.537-1.975 3.02-1.51 4.41 2.264 3.22 6.776-3.147 6.558-7.026-.078-1.39-.82-2.707-1.927-3.348-1.65-.988-4.167-.732-5.796.055-2.18.824-5.634 3.696-7.65 5.93-2.536 2.8-6.887 5.91-8.248 5.56.446-1.19 4.12-8.71.255-11.526zm31.762 40.71c-7.442-4.795-17.542-5.636-33.83-1.117-17.364 4.08-23.154 6.696-30.757 1.445-2.92-2.58-3.97-6.733-3.187-12.715 1.814-9.753 6.716-19.138 15.422-29.548 4.86-5.417 9.368-10.064 15.32-11.93 4.562-1.17 4.136 2.414 3.584 2.927-.583 0-1.56.092-2.317.585-.615.476-2.3 2.013-2.39 4.08-.13 3.166 3.145 2.507 4.557.77 1.523-1.96 3.774-5.71 2.003-9.204-.742-1.244-2.024-2.104-3.615-2.397C37.155.7 32.078 3.3 27.393 6.17 17.15 13.29 8.953 23.15 4.317 33.946 1.643 40.458-.775 49.788 2.85 57.382c2.803 5.27 8.624 8.067 15.57 7.482 4.87-.512 10.76-2.086 14.72-3.036 3.963-.952 24.24-7.923 30.902 4.21 0 0 2.216-4.302 7.753-4.394 4.552-.42 11.12 1.318 15.9 4.83-1.593-2.396-6.11-5.927-9.878-8.36z"/></symbol><symbol viewBox="0 0 512 97" id="sprite-icon-envato"><path d="M65.898 9.765c-2.574-1.428-9.952-.545-18.813 2.198-15.508 10.6-28.596 26.217-29.51 51.296-.166.598-1.695-.083-1.998-.268-4.188-8.027-5.847-16.48-2.35-28.672.652-1.085-1.48-2.42-1.862-2.04-.768.77-3.967 4.178-6.092 7.864C-5.26 58.417 1.627 81.83 20.057 92.077c18.425 10.262 41.692 3.642 51.95-14.79 11.87-21.27.85-63.636-6.11-67.52v-.002zM131.85 19.974c-21.846 0-37.704 16.242-37.704 38.62 0 22.56 15.816 38.318 38.466 38.318 11.44 0 20.497-3.577 27.7-10.94 2.152-2.324 2.383-4.563 2.383-5.42 0-3.647-2.713-6.297-6.45-6.297-1.885 0-3.46.712-5.268 2.383-4.08 3.8-9.45 7.683-18.365 7.683-12.398 0-22.48-9.307-23.115-21.26h49.342c5.364 0 7.97-2.508 7.97-7.666 0-1.52 0-2.615-.305-4.777-2.658-19.186-15.61-30.64-34.653-30.64l-.002-.003zm0 11.98c11.847 0 19.448 7.55 19.917 19.735h-42.255c1.11-11.278 10.644-19.736 22.338-19.736zM213.927 19.974c-9.924 0-19.75 5.707-23.59 13.633v-4.9c0-7.586-5.88-7.97-7.058-7.97-3.485 0-7.21 2.093-7.21 7.97v59.16c0 7.88 6.26 8.28 7.514 8.28 1.255 0 7.517-.4 7.517-8.28V56.155c0-13.798 7.82-23.436 19.016-23.436 10.843 0 16.116 7.116 16.116 21.757v33.393c0 7.88 6.262 8.278 7.517 8.278 1.253 0 7.513-.398 7.513-8.278V49.755c0-14.396-7.182-29.776-27.336-29.776v-.006zM309.272 20.737c-3.473 0-5.992 2.026-7.492 6.012l-20.564 51.71-20.408-51.71c-1.598-4.046-4.098-6.013-7.645-6.013-4.144 0-7.517 3.234-7.517 7.21 0 .983.112 2.26.944 4.252L270.223 88c2.816 6.733 7.448 8.146 10.84 8.146 3.39 0 8.024-1.413 10.846-8.14l23.785-56.114c.813-1.968.94-3.413.94-4.097 0-4.022-3.17-7.057-7.363-7.057zM352.963 19.974c-9.613 0-18.567 2.678-25.208 7.534-2.253 1.554-3.348 3.492-3.348 5.93 0 3.356 2.562 5.987 5.84 5.987 1.417 0 3.004-.564 4.46-1.584 5.71-3.805 11.075-5.58 16.882-5.58 11.112 0 17.492 5.652 17.492 15.508V49.4c-24.947.028-50.32 3.04-50.32 24.744 0 15.62 13.348 22.613 26.576 22.613 10.536 0 18.95-4.175 24.348-12.08v3.802c0 5.66 3.8 7.666 7.062 7.666.686 0 6.75-.215 6.75-7.667v-39.8c0-17.978-11.418-28.71-30.536-28.71v.004zm12.957 40.493h3.162v3.463c0 12.664-8.064 20.846-20.54 20.846-3.387 0-14.44-.788-14.44-10.938 0-11.985 18.158-13.37 31.818-13.37zM422.648 34.395c6.576 0 6.91-5.118 6.91-6.143 0-3.043-1.817-6.296-6.91-6.296h-13.523V8.278c0-6.11-3.964-8.278-7.362-8.278-1.254 0-7.514.398-7.514 8.278v64.954c0 14.99 7.393 22.913 21.386 22.913 3.62 0 7.148-.64 9.454-1.715 2.646-1.32 4.16-3.49 4.16-5.952 0-3.473-2.518-5.992-5.99-5.992-.672 0-1.626.166-2.68.47-1.286.32-2.158.446-3.112.446-5.693 0-8.343-3.716-8.343-11.696V34.388h13.523v.007zM472.345 19.974c-22.734 0-39.227 16.114-39.227 38.312 0 10.808 3.997 20.66 11.25 27.736 7.197 7.02 17.132 10.887 27.978 10.887 22.45 0 39.38-16.605 39.38-38.623 0-22.2-16.566-38.312-39.38-38.312zm0 64.19c-15.59 0-23.742-13.018-23.742-25.88 0-17.672 12.307-25.72 23.742-25.72s23.742 8.048 23.742 25.72c0 17.783-12.307 25.88-23.742 25.88z"/></symbol><symbol viewBox="0 0 155.139 155.139" id="sprite-icon-facebook"><path d="M89.584 155.14V84.377h23.742l3.562-27.585H89.584v-17.61c0-7.983 2.208-13.424 13.67-13.424l14.595-.007V1.08C115.324.752 106.66 0 96.576 0 75.52 0 61.104 12.853 61.104 36.452v20.34H37.29V84.38h23.814v70.76h28.48z"/></symbol><symbol viewBox="0 0 438.549 438.549" id="sprite-icon-github-logo"><path d="M409.132 114.573c-19.608-33.596-46.205-60.194-79.798-79.8C295.736 15.166 259.057 5.365 219.27 5.365c-39.78 0-76.47 9.804-110.062 29.408-33.596 19.605-60.192 46.204-79.8 79.8C9.803 148.168 0 184.853 0 224.63c0 47.78 13.94 90.745 41.827 128.906 27.884 38.164 63.906 64.572 108.063 79.227 5.14.954 8.945.283 11.42-1.996 2.474-2.282 3.71-5.14 3.71-8.562 0-.57-.05-5.708-.144-15.417-.098-9.71-.144-18.18-.144-25.406l-6.567 1.136c-4.187.767-9.47 1.092-15.846 1-6.375-.09-12.992-.757-19.843-2-6.854-1.23-13.23-4.085-19.13-8.558-5.898-4.473-10.085-10.328-12.56-17.556l-2.855-6.57c-1.903-4.374-4.9-9.233-8.992-14.56-4.093-5.33-8.232-8.944-12.42-10.847l-1.998-1.43c-1.332-.952-2.568-2.1-3.71-3.43-1.143-1.33-1.998-2.663-2.57-3.997-.57-1.335-.097-2.43 1.428-3.29 1.525-.858 4.28-1.275 8.28-1.275l5.708.853c3.807.763 8.516 3.042 14.133 6.85 5.615 3.807 10.23 8.755 13.847 14.843 4.38 7.807 9.657 13.755 15.846 17.848 6.184 4.093 12.42 6.136 18.7 6.136 6.28 0 11.703-.476 16.273-1.423 4.565-.95 8.848-2.382 12.847-4.284 1.713-12.758 6.377-22.56 13.988-29.41-10.847-1.14-20.6-2.857-29.263-5.14-8.658-2.286-17.605-5.996-26.835-11.14-9.235-5.137-16.896-11.516-22.985-19.126-6.09-7.614-11.088-17.61-14.987-29.98-3.9-12.373-5.852-26.647-5.852-42.825 0-23.035 7.52-42.637 22.557-58.817-7.044-17.318-6.38-36.732 1.997-58.24 5.52-1.715 13.706-.428 24.554 3.853 10.85 4.284 18.794 7.953 23.84 10.995 5.046 3.04 9.09 5.618 12.135 7.708 17.706-4.947 35.977-7.42 54.82-7.42s37.116 2.473 54.822 7.42l10.85-6.85c7.418-4.57 16.18-8.757 26.26-12.564 10.09-3.806 17.803-4.854 23.135-3.14 8.562 21.51 9.325 40.923 2.28 58.24 15.035 16.18 22.558 35.788 22.558 58.818 0 16.178-1.958 30.497-5.853 42.966-3.9 12.47-8.94 22.457-15.125 29.98-6.19 7.52-13.9 13.85-23.13 18.985-9.233 5.14-18.183 8.85-26.84 11.135-8.663 2.286-18.416 4.004-29.264 5.146 9.894 8.563 14.842 22.078 14.842 40.54v60.237c0 3.422 1.19 6.28 3.572 8.562 2.38 2.278 6.136 2.95 11.276 1.994 44.163-14.653 80.185-41.062 108.068-79.226 27.88-38.16 41.826-81.126 41.826-128.906-.01-39.77-9.818-76.454-29.414-110.05z"/></symbol><symbol viewBox="0 0 512 139" id="sprite-icon-github"><path d="M98.696 59.312h-43.06c-1.11 0-2.013.903-2.013 2.014V82.38c0 1.11.902 2.014 2.012 2.014h16.8v26.157s-3.773 1.287-14.2 1.287c-12.304 0-29.49-4.496-29.49-42.288 0-37.8 17.896-42.774 34.697-42.774 14.543 0 20.81 2.56 24.795 3.794 1.253.384 2.412-.863 2.412-1.975L95.45 8.253c0-.52-.176-1.146-.77-1.57C93.065 5.526 83.188 0 58.235 0 29.487 0 0 12.23 0 71.023c0 58.795 33.76 67.556 62.21 67.556 23.555 0 37.844-10.067 37.844-10.067.59-.325.653-1.148.653-1.526v-65.66c0-1.112-.9-2.015-2.01-2.015zm221.8-51.953c0-1.12-.888-2.025-2-2.025h-24.245c-1.106 0-2.007.904-2.007 2.024l.006 46.855h-37.793V7.36c0-1.12-.892-2.025-2-2.025H228.21c-1.102 0-2.002.904-2.002 2.024v126.87c0 1.12.9 2.032 2.003 2.032h24.246c1.11 0 2-.912 2-2.03V79.963h37.793l-.067 54.267c0 1.12.9 2.032 2.008 2.032h24.305c1.11 0 1.998-.912 2-2.03V7.358zM144.37 24.32c0-8.73-7-15.786-15.634-15.786-8.627 0-15.632 7.055-15.632 15.786 0 8.72 7.005 15.795 15.632 15.795 8.635 0 15.635-7.075 15.635-15.795zm-1.923 83.212V48.97c0-1.112-.897-2.02-2.006-2.02h-24.168c-1.11 0-2.1 1.143-2.1 2.255v83.905c0 2.466 1.536 3.2 3.525 3.2h21.775c2.39 0 2.975-1.174 2.975-3.24v-25.536zM413.162 46.95h-24.06c-1.104 0-2.002.908-2.002 2.027v62.21s-6.112 4.472-14.788 4.472c-8.675 0-10.977-3.938-10.977-12.432v-54.25c0-1.12-.897-2.03-2-2.03h-24.42c-1.102 0-2.005.91-2.005 2.03v58.358c0 25.23 14.063 31.403 33.408 31.403 15.87 0 28.665-8.768 28.665-8.768s.61 4.62.885 5.168c.276.547.994 1.098 1.77 1.098l15.535-.068c1.102 0 2.005-.91 2.005-2.025l-.008-85.168c0-1.12-.9-2.028-2.008-2.028zm55.435 68.757c-8.345-.254-14.006-4.04-14.006-4.04v-40.18s5.586-3.422 12.437-4.034c8.664-.776 17.013 1.84 17.013 22.51 0 21.795-3.768 26.096-15.443 25.744zm9.49-71.483c-13.665 0-22.96 6.097-22.96 6.097V7.36c0-1.12-.895-2.025-2-2.025H428.81c-1.106 0-2.004.904-2.004 2.024v126.87c0 1.12.898 2.032 2.007 2.032h16.87c.76 0 1.335-.392 1.76-1.078.42-.682 1.024-5.85 1.024-5.85s9.94 9.422 28.762 9.422c22.096 0 34.768-11.208 34.768-50.315 0-39.106-20.238-44.216-33.913-44.216zM212.23 46.73H194.04l-.028-24.026c0-.91-.468-1.364-1.52-1.364H167.71c-.964 0-1.48.424-1.48 1.35v24.83s-12.42 2.998-13.26 3.24c-.837.242-1.453 1.014-1.453 1.934v15.603c0 1.122.896 2.027 2.005 2.027h12.707v37.536c0 27.88 19.555 30.62 32.752 30.62 6.03 0 13.243-1.938 14.434-2.377.72-.265 1.138-1.01 1.138-1.82l.02-17.164c0-1.12-.945-2.026-2.01-2.026-1.06 0-3.77.43-6.562.43-8.933 0-11.96-4.153-11.96-9.53v-35.67h18.187c1.108 0 2.005-.905 2.005-2.027V48.753c0-1.12-.897-2.022-2.006-2.022z"/></symbol><symbol viewBox="0 0 512 205" id="sprite-icon-ibm"><path d="M0 0v14.012h99.66V0H0zm113.78 0v14.012H255.8S241.293 0 222.08 0h-108.3zm169.88 0v14.012h85.92L364.48 0h-80.82zm147.52 0l-5.1 14.012h85.14V0h-80.04zM0 27.25v14.012h99.66V27.25H0zm113.78.02v13.992h158.5s-1.85-10.784-5.08-13.992H113.78zm169.88 0v13.992H379l-4.72-13.992h-90.62zm137.32 0l-4.72 13.992h94.96V27.27h-90.24zM28.64 54.5v14.03H71.8V54.5H28.64zm113.78 0v14.03h43.16V54.5h-43.16zm85.14 0v14.03h43.16s2.74-7.41 2.74-14.03h-45.9zm84.74 0v14.03h76.52l-5.1-14.03H312.3zm99.28 0l-5.12 14.03h76.9V54.5h-71.78zM28.64 81.77v14.01H71.8V81.77H28.64zm113.78 0v14.01h110.24s9.222-7.19 12.16-14.01h-122.4zm169.88 0v14.01h43.16v-7.8l2.74 7.8h79.06l2.94-7.8v7.8h43.16V81.77h-81.02l-4.3 11.868-4.32-11.87H312.3zM28.64 109.02v14.01H71.8v-14.01H28.64zm113.78 0v14.01h122.4c-2.94-6.8-12.16-14.01-12.16-14.01H142.42zm169.88 0v14.01h43.16v-14.01H312.3zm51 0l5.22 14.01h59.28l4.96-14.01H363.3zm76.9 0v14.01h43.16v-14.01H440.2zM28.64 136.27v14.01H71.8v-14.01H28.64zm113.78 0v14.01h43.16v-14.01h-43.16zm85.14 0v14.01h45.9c0-6.612-2.74-14.01-2.74-14.01h-43.16zm84.74 0v14.01h43.16v-14.01H312.3zm60.8 0l5.06 14.01h39.74l5.1-14.01h-49.9zm67.1 0v14.01h43.16v-14.01H440.2zM.78 163.517v14.032h99.66v-14.032H.78zm113 0v14.032H267.2c3.23-3.213 5.08-14.032 5.08-14.032h-158.5zm170.66 0v14.032h71.02v-14.032h-71.02zm98.48 0l5.2 14.032h20.22l4.88-14.032h-30.3zm57.28 0v14.032H512v-14.032h-71.8zM.78 190.788V204.8h99.66v-14.012H.78zm113 0v13.992h108.3c19.213 0 33.72-13.992 33.72-13.992H113.78zm170.66 0V204.8h71.02v-14.012h-71.02zm108.34 0l5 13.972.86.02 5.08-13.992h-10.94zm47.42 0V204.8H512v-14.012h-71.8z"/></symbol><symbol viewBox="0 0 499.99996 105" id="sprite-icon-lenovo-logo"><g><path d="M209.947 23.227c-8.938 0-19.102 4.143-25.313 12.438l.004-.017-.004.004.004-11.122h-21.316v77.627h21.312v-44.17c0-7.95 6.164-16.4 17.577-16.4 8.82 0 17.948 6.133 17.948 16.4v44.17h21.317v-48.12c0-17.855-12.774-30.81-31.528-30.81"/><path d="M392.97 24.533L373.7 77.41l-19.27-52.877h-24.35l31.94 77.603h23.358l31.94-77.603H392.97z"/><path d="M99.688 47.918c3.63-4.874 9.412-7.736 16.396-7.736 7.68 0 13.51 4.387 16.522 10.862l-37.242 15.45c-1.017-7.928 1.013-14.13 4.324-18.576M140.64 78.29c-8.97 6.64-14.097 8.223-22.278 8.223-7.362 0-13.127-2.286-17.19-6.294l54.495-22.608c-1.19-8.425-4.387-15.95-9.307-21.674-7.16-8.316-17.758-12.715-30.662-12.715-23.44 0-41.113 17.29-41.113 40.13 0 23.43 17.716 40.124 43.462 40.124 14.425 0 29.174-6.837 36.074-14.825L140.64 78.29z"/><path d="M72.554 82.583h-48.45V1.313H2.5v100.843h70.056V82.583z"/><path d="M455.592 41.49c-11.904 0-20.548 9.02-20.548 21.854 0 12.253 9.156 21.854 20.834 21.854 11.908 0 20.548-9.27 20.548-21.854 0-12.253-9.152-21.855-20.834-21.855m0 61.974c-23.313 0-41.58-17.367-41.58-40.12 0-22.498 18.393-40.12 41.866-40.12 23.312 0 41.574 17.366 41.574 40.12 0 22.493-18.388 40.12-41.86 40.12"/><path d="M291.48 41.49c-11.904 0-20.544 9.02-20.544 21.854 0 12.253 9.152 21.854 20.834 21.854 11.904 0 20.544-9.27 20.544-21.854 0-12.253-9.152-21.855-20.834-21.855m0 61.974c-23.313 0-41.575-17.367-41.575-40.12 0-22.498 18.388-40.12 41.865-40.12 23.308 0 41.575 17.366 41.575 40.12 0 22.493-18.393 40.12-41.865 40.12"/></g></symbol><symbol viewBox="0 0 430.117 430.117" id="sprite-icon-linkedin"><path d="M430.117 261.543V420.56H337.93V272.193c0-37.27-13.335-62.707-46.704-62.707-25.473 0-40.632 17.142-47.3 33.724-2.433 5.928-3.06 14.18-3.06 22.477V420.56H148.65s1.242-251.285 0-277.32h92.21v39.31c-.187.293-.43.61-.606.895h.606v-.896c12.25-18.87 34.13-45.825 83.102-45.825 60.673 0 106.157 39.636 106.157 124.818zM52.183 9.558C20.635 9.558 0 30.25 0 57.463c0 26.62 20.038 47.94 50.96 47.94h.615c32.16 0 52.16-21.317 52.16-47.94-.607-27.212-20-47.905-51.552-47.905zM5.477 420.56H97.66V143.24H5.478v277.32z"/></symbol><symbol viewBox="0 0 511.626 511.626" id="sprite-icon-mail"><path d="M49.106 178.73c6.472 4.566 25.98 18.13 58.528 40.684s57.482 39.92 74.803 52.1c1.903 1.334 5.946 4.236 12.13 8.71 6.187 4.475 11.327 8.092 15.417 10.85 4.093 2.76 9.04 5.853 14.85 9.278 5.805 3.422 11.278 5.996 16.417 7.7 5.14 1.718 9.9 2.57 14.276 2.57h.575c4.378 0 9.138-.853 14.278-2.57 5.137-1.704 10.615-4.28 16.416-7.7 5.804-3.43 10.752-6.52 14.845-9.277 4.092-2.76 9.228-6.376 15.416-10.852 6.184-4.477 10.232-7.375 12.135-8.71 17.51-12.18 62.052-43.11 133.616-92.79 13.894-9.703 25.502-21.41 34.827-35.116 9.332-13.7 13.993-28.07 13.993-43.105 0-12.564-4.523-23.32-13.565-32.264-9.04-8.947-19.748-13.418-32.116-13.418H45.68c-14.656 0-25.934 4.948-33.833 14.844C3.95 79.562 0 91.934 0 106.78c0 11.99 5.236 24.984 15.703 38.973 10.466 13.99 21.604 24.983 33.403 32.976zM483.072 209.275c-62.424 42.25-109.824 75.087-142.177 98.5-10.85 7.992-19.65 14.23-26.41 18.7-6.758 4.473-15.747 9.04-26.98 13.702-11.227 4.668-21.69 6.995-31.4 6.995h-.578c-9.707 0-20.177-2.327-31.405-6.995-11.228-4.66-20.223-9.23-26.98-13.702-6.755-4.47-15.56-10.708-26.407-18.7-25.697-18.84-72.995-51.68-141.896-98.5C17.986 202.047 8.374 193.762 0 184.437v226.685c0 12.57 4.47 23.32 13.418 32.265 8.945 8.95 19.7 13.422 32.264 13.422h420.266c12.56 0 23.315-4.474 32.26-13.423 8.95-8.95 13.42-19.694 13.42-32.265V184.437c-8.187 9.132-17.7 17.417-28.556 24.838z"/></symbol><symbol viewBox="0 0 330 330" id="sprite-icon-mastercard"><g><path d="M202.5 122.5c-10.482 0-20.084 3.822-27.502 10.136C181.304 141.862 185 153.006 185 165s-3.696 23.138-10.002 32.364c7.418 6.314 17.02 10.136 27.502 10.136 23.435 0 42.5-19.065 42.5-42.5s-19.065-42.5-42.5-42.5z"/><path d="M315 42.857H15c-8.284 0-15 6.716-15 15v214.285c0 8.284 6.716 15 15 15h300c8.284 0 15-6.716 15-15V57.857c0-8.284-6.716-15-15-15zM202.5 222.5c-14.32 0-27.424-5.274-37.5-13.966-10.076 8.69-23.18 13.966-37.5 13.966-31.706 0-57.5-25.794-57.5-57.5s25.794-57.5 57.5-57.5c14.32 0 27.424 5.274 37.5 13.966 10.076-8.69 23.18-13.966 37.5-13.966 31.706 0 57.5 25.794 57.5 57.5s-25.794 57.5-57.5 57.5z"/></g></symbol><symbol viewBox="0 0 1413 200" id="sprite-icon-McLaren-Logo"><path d="M1328.97 3.23c11.88-2.06 23.97-2.41 36.01-2.58 12.02-.06 24.52 1.23 35.23 7.14 9.84 4.04 15.24 16.03 11.64 26.07-4.68 15.5-15.81 27.85-27.12 38.96-28.61 29.45-64.07 50.7-98.15 73.07 5.71-8.33 10.36-17.38 13.89-26.84 2.73-7.44 5.32-15.08 5.64-23.07.43-8.22-1.33-16.96-6.61-23.48-5.35-6-12.88-9.59-20.53-11.67-11.05-3.08-22.6-3.42-34-3.39-25.91.2-51.58 4.44-76.9 9.63-8.89 1.61-17.64 4.32-26.71 4.68 7.71-2.55 14.51-7.04 21.75-10.59 34.1-17.29 69.4-32.34 105.94-43.68 19.58-6.26 39.67-10.77 59.92-14.25z"/><g><path d="M146.14 83.18c1.27-1.38 3.2-1.15 4.89-1.19 14.61.1 29.22.14 43.83-.01.27 20.69.72 41.39.98 62.08 26.3-20 50.86-42.18 77.09-62.27 16 .63 32.01.05 48.02.35-.1 39.23-.06 78.46 0 117.69-20.75.16-41.5-.16-62.24.17h-.41c-.23-18.37-.07-36.75-.06-55.12-21.48 17.78-41.54 37.19-62.88 55.12h-3.05c-19.56-.4-39.12.07-58.68-.21.34-18.44-.11-36.88.25-55.32-21.32 18.12-41.7 37.31-62.93 55.53H.84c1.99-2.11 4.34-3.81 6.71-5.45 11.99-8.92 23.14-18.89 34.97-28.01 34.58-27.73 69.19-55.44 103.62-83.36zM509.12 81.93c20.64.25 41.28.12 61.92.08.29 30.21.12 60.42.12 90.63 13.94.01 27.89.03 41.83 0-.23 9.07-.27 18.14.01 27.2-34.69-.03-69.38.21-104.06-.12.11-39.26-.26-78.53.18-117.79zM342.19 121.27c5.51-10.52 16.74-18.35 28.83-18.27 41.24.03 82.48 0 123.73.02-.21 9.16-.03 18.32-.03 27.48-27.22.31-54.45-.24-81.68.25-7.03.3-12.63 6.16-14.59 12.61-2.74 8.6-1.17 19.2 5.8 25.39 2.45 2.05 5.51 3.62 8.77 3.62 27.25.68 54.51 0 81.75.34-.19 8.99-.18 17.98.05 26.97-41.93.43-83.87.07-125.81.18-9.17-.27-17.7-5.41-23.25-12.56-13.29-19.04-14.04-45.54-3.57-66.03zM634.02 102.91c40.66.25 81.33.04 122 .1 8.41-.02 16.79 3.33 22.75 9.29 10.03 9.72 14.58 23.93 14.74 37.66.08 12.88-2.64 26.4-10.84 36.68-5.48 7.24-13.78 12.07-22.76 13.36H643.22c-8.68-1.4-13.6-10.14-15.2-18.05-2.03-9.72-1.17-20.33 3.82-29.06 2.8-4.98 8.4-8.25 14.13-8.15 28.4.18 56.81-.08 85.22.15.02-4.8.03-9.59.01-14.39-32.37.22-64.75-.02-97.12.12-.34-9.24-.28-18.48-.06-27.71m48.09 55.76c0 4.65-.02 9.31.01 13.97 16.32.05 32.65-.18 48.97.19.1-4.76.17-9.53.22-14.29-16.4-.02-32.8-.14-49.2.13zM807.95 118.05c-.59-7.89 6.97-15.76 14.95-14.88 27.37-.39 54.75-.05 82.13-.12-.18 9.16-.13 18.32-.06 27.49-11.65.09-23.29-.03-34.94.07.11 23.08 0 46.16.08 69.24-20.72.06-41.44-.03-62.16.04.04-27.28.06-54.56 0-81.84zM931.53 108.6c5.94-4.22 13.35-5.59 20.51-5.64 37.01.07 74.03.09 111.04.02 7.33 1.68 12.11 8.85 14.17 15.7 2.66 9.6 2.5 20.4-2.05 29.41-2.84 5.7-8.44 10.66-15.13 10.44-28.48 0-56.96-.04-85.44-.02.01 4.7.02 9.39-.01 14.08 32.49.21 64.97-.12 97.46.13-.1 9.09.03 18.19-.18 27.28H946.34c-9.81-1.14-18.85-6.79-24.3-14.99-8.98-13.54-11.6-30.75-8.38-46.55 2.26-11.58 7.95-23.03 17.87-29.86m43.09 22.08c-.03 4.61.14 9.22-.05 13.83 16.19.49 32.42-.02 48.62.26.02-4.73.03-9.46.06-14.2-16.21.13-32.42-.12-48.63.11zM1092.92 102.94c41.69.14 83.39.1 125.09.01 6.28-.27 12.66.86 18.31 3.7 8.6 4.14 15.99 12.46 16.35 22.35.59 23.62-.14 47.24.31 70.86-18.59-.11-37.18.2-55.77-.15.25-16.24.14-32.48.1-48.72.15-6.24-3.74-12.19-9.31-14.89-9.99-4.95-21.39-5.25-32.29-5.78.01 23.07-.29 46.14.12 69.21-3.85.09-7.69.11-11.51.47h-35.7c-5.25-.36-10.51-.17-15.76-.28.15-32.26.05-64.52.06-96.78z"/></g></symbol><symbol viewBox="0 0 512 138" id="sprite-icon-netflix"><path d="M340.657 0v100.203c12.36.575 24.687 1.27 36.98 2.09v21.245c-19.433-1.296-38.947-2.285-58.542-2.96V0h21.562zM512 .012l-28.077 65.094 28.07 72.438-.03.013c-8.178-1.166-16.365-2.267-24.577-3.323l-15.763-40.656-15.913 36.882c-7.542-.833-15.093-1.62-22.662-2.36l27.37-63.43L435.353.013h23.325l14.035 36.184L488.318.012H512zM245.093 119.526V.01h60.19v21.437h-38.628v27.78h29.227v21.245h-29.227v49.05l-21.562.004zM164.58 21.448V.01h66.69v21.437h-22.565v98.66c-7.197.19-14.386.412-21.56.683V21.448H164.58zM90.868 126.966V.014h59.89V21.45h-38.33v29.035c8.805-.113 21.326-.24 29.116-.222V71.51c-9.75-.122-20.758.133-29.117.216v32.164c12.74-1.002 25.518-1.88 38.33-2.62v21.247c-20.053 1.155-40.017 2.644-59.89 4.45zM48.57 77.854V.01h21.562v128.96c-7.882.81-15.75 1.672-23.603 2.583l-24.97-71.73v74.803c-7.2.938-14.387 1.915-21.56 2.936V.012h20.49l28.08 77.842zm346.855 46.965V.01h21.563V126.6c-7.18-.64-14.364-1.23-21.563-1.78z"/></symbol><symbol viewBox="135.5 361.375 200 72" id="sprite-icon-nike-logo"><path d="M159.23 431.966c-5.84-.232-10.618-1.83-14.354-4.798-.713-.567-2.412-2.267-2.982-2.984-1.515-1.905-2.545-3.76-3.232-5.816-2.114-6.332-1.026-14.64 3.112-23.76 3.543-7.807 9.01-15.55 18.548-26.274 1.405-1.578 5.59-6.193 5.616-6.193.01 0-.218.396-.505.877-2.48 4.154-4.602 9.047-5.758 13.283-1.857 6.797-1.633 12.63.656 17.153 1.58 3.116 4.287 5.815 7.33 7.307 5.33 2.61 13.132 2.827 22.66.632.656-.152 33.162-8.78 72.236-19.176 39.074-10.396 71.05-18.895 71.054-18.888.01.01-90.78 38.86-137.91 59.014-7.465 3.19-9.46 3.997-12.97 5.23-8.97 3.15-17.005 4.652-23.5 4.394z"/></symbol><symbol viewBox="0 0 256 289" id="sprite-icon-nodejs"><path d="M128 288.464c-3.975 0-7.685-1.06-11.13-2.915l-35.247-20.937c-5.3-2.915-2.65-3.975-1.06-4.505 7.155-2.385 8.48-2.915 15.9-7.156.796-.53 1.856-.265 2.65.265l27.032 16.166c1.06.53 2.385.53 3.18 0l105.74-61.217c1.06-.53 1.59-1.59 1.59-2.915V83.08c0-1.324-.53-2.384-1.59-2.914l-105.74-60.953c-1.06-.53-2.385-.53-3.18 0L20.405 80.166c-1.06.53-1.59 1.855-1.59 2.915v122.17c0 1.06.53 2.386 1.59 2.916l28.887 16.695c15.636 7.952 25.44-1.324 25.44-10.6V93.68c0-1.59 1.326-3.18 3.18-3.18H91.43c1.59 0 3.18 1.326 3.18 3.18v120.58c0 20.937-11.397 33.127-31.273 33.127-6.095 0-10.865 0-24.38-6.625l-27.827-15.9C4.24 220.885 0 213.465 0 205.515V83.346C0 75.396 4.24 67.976 11.13 64L116.87 2.783c6.625-3.71 15.635-3.71 22.26 0L244.87 64C251.76 67.975 256 75.395 256 83.346v122.17c0 7.95-4.24 15.37-11.13 19.345l-105.74 61.22c-3.445 1.59-7.42 2.384-11.13 2.384zm32.596-84.01c-46.377 0-55.917-21.2-55.917-39.22 0-1.59 1.324-3.18 3.18-3.18h13.78c1.59 0 2.915 1.06 2.915 2.65 2.12 14.045 8.215 20.936 36.306 20.936 22.262 0 31.803-5.035 31.803-16.96 0-6.89-2.65-11.926-37.367-15.372-28.886-2.915-46.907-9.275-46.907-32.33 0-21.467 18.02-34.187 48.23-34.187 33.922 0 50.618 11.66 52.738 37.102 0 .795-.265 1.59-.795 2.385-.53.53-1.325 1.06-2.12 1.06h-13.78c-1.326 0-2.65-1.06-2.916-2.385-3.18-14.575-11.395-19.345-33.126-19.345-24.38 0-27.295 8.48-27.295 14.84 0 7.686 3.445 10.07 36.306 14.31 32.598 4.24 47.968 10.336 47.968 33.127-.265 23.32-19.345 36.57-53.002 36.57z"/></symbol><symbol viewBox="0 0 348.077 348.077" id="sprite-icon-phone"><path d="M340.273 275.083l-53.755-53.76c-10.707-10.665-28.438-10.34-39.518.743l-27.082 27.076c-1.71-.943-3.482-1.928-5.344-2.973-17.102-9.477-40.51-22.465-65.14-47.114-24.704-24.7-37.704-48.144-47.21-65.257-1.002-1.814-1.963-3.562-2.912-5.222l18.176-18.15 8.936-8.946c11.097-11.1 11.403-28.826.72-39.52L73.39 8.193c-10.682-10.68-28.42-10.356-39.518.744l-15.15 15.237.414.41c-5.08 6.483-9.325 13.96-12.484 22.02C3.74 54.28 1.927 61.604 1.098 68.942-6 127.786 20.89 181.565 93.866 254.54c100.875 100.87 182.167 93.25 185.674 92.877 7.638-.913 14.958-2.738 22.397-5.627 7.992-3.122 15.463-7.36 21.94-12.43l.332.294 15.347-15.03c11.074-11.097 11.393-28.83.716-39.54z"/></symbol><symbol viewBox="0 0 502.921 104.794" id="sprite-icon-PlayStation-logo"><path d="M502.3 24.062H180.797v65.083H502.92V24.062h-.62zm-13.197 57.156h5.627v.83h-2.322v6.42h-.98v-6.42h-2.324v-.83z" fill="none"/><path d="M491.427 88.467h.98V82.05h2.323v-.832h-5.627v.83h2.324z"/><path d="M502.3 24.062H180.797v65.083H502.92V24.062h-.62zm-6.668 57.156h1.352l2.102 6.19 2.033-6.19h1.18v7.25h-.81v-5.89l-1.953 5.89h-.97l-1.954-5.89v5.89h-.98v-7.25z" fill="none"/><path d="M496.613 82.577l1.953 5.89h.97l1.954-5.89v5.89h.81v-7.25h-1.18l-2.035 6.192-2.1-6.192h-1.353v7.25h.98zM335.36 71.1V41.127c0-6.115 2.855-10.494 8.942-10.494h37.547c.23 0 .45-.228.45-.454v-5.964c0-.052-.015-.103-.035-.152h-45.91c-9.95 1.265-14.81 8.2-14.81 17.064V71.1c0 6.115-2.935 10.495-8.94 10.495H272.95c-.225 0-.45.15-.45.453v5.965c0 .247.15.436.33.5h45.018c11.734-.31 17.51-7.8 17.51-17.412zM181.104 88.513h13.183c.178-.063.33-.252.33-.5V68.912c0-6.114 3.454-10.343 8.486-10.343h54.3c12.243 0 18.177-7.55 18.177-17.44 0-8.865-4.857-15.8-14.813-17.065H180.86c-.023.05-.062.09-.062.152v5.964c0 .302.15.454.45.454h71.574c6.084 0 8.938 4.38 8.938 10.494 0 6.116-2.854 10.495-8.938 10.495h-56.628c-8.787 0-15.396 7.477-15.396 17.29v19.104c0 .247.105.435.306.5z"/><path d="M393.714 74.65h60.465c.22 0 .45-.228.45-.454V36.974c0-.83-.752-.906-1.13-.604l-60.157 37.223c-.38.227-.53.453-.45.755.07.15.3.3.82.3z" fill="none"/><path d="M382.08 81.596h72.1c.22 0 .37.15.37.302v6.116c0 .302.23.453.452.453h12.996c.23 0 .45-.15.45-.453V82.05c0-.228.23-.454.45-.454h12.916c.3 0 .45-.227.45-.452v-6.04c0-.228-.15-.454-.45-.454h-12.916c-.22 0-.45-.227-.45-.453V30.632c0-3.555-1.322-5.82-3.543-6.57h-3.76c-1.172.3-2.446.84-3.812 1.66L379.677 73.67c-3.004 1.887-4.057 4-3.305 5.586.6 1.36 2.323 2.342 5.708 2.342zm11.263-8.003L453.5 36.37c.38-.302 1.13-.226 1.13.604v37.223c0 .227-.23.453-.45.453h-60.465c-.52 0-.752-.15-.822-.302-.08-.302.07-.53.45-.755zM50.372 0c5.858 1.092 11.616 2.652 17.346 4.278 3.278.952 6.547 1.937 9.795 2.986 5.102 1.625 10.182 3.465 14.803 6.21 2.07 1.256 4.058 2.676 5.757 4.408 1.84 1.8 3.348 3.933 4.454 6.255 2.015 4.208 2.705 8.91 2.91 13.53.095 3.017.09 6.06-.474 9.036-.468 2.587-1.3 5.138-2.684 7.385-1.223 1.985-2.922 3.7-4.984 4.807-1.978 1.066-4.243 1.574-6.486 1.53-3.402.035-6.703-1.05-9.756-2.47-.055-10.154-.008-20.31-.024-30.46-.022-1.838.103-3.694-.267-5.506-.26-1.405-.833-2.82-1.935-3.773-.73-.66-1.678-1.03-2.63-1.232-.963-.183-1.99.226-2.586 1-.99 1.237-1.25 2.88-1.296 4.422-.008 27.18.01 54.363-.008 81.542-7.312-2.318-14.625-4.637-21.935-6.96-.008-32.33-.005-64.66 0-96.99zM17.506 68.783C27.04 65.408 36.562 62 46.1 58.637c.014 3.743 0 7.487.005 11.233-.006.508.027 1.018-.037 1.523-7.538 2.672-15.06 5.39-22.592 8.08-1.044.394-2.115.84-2.92 1.638-.375.375-.68.927-.475 1.463.26.63.903.974 1.497 1.234 1.652.672 3.458.767 5.218.848 1.962-.03 3.932-.178 5.854-.602 1.298-.255 2.548-.693 3.786-1.158 3.218-1.165 6.436-2.337 9.66-3.49.023 3.166.003 6.334.01 9.503-.01.633.028 1.27-.035 1.9-3.957.712-7.962 1.195-11.985 1.258-8.1.183-16.22-1.07-23.916-3.603-2.525-.73-5.033-1.704-7.14-3.307C1.87 84.258.832 83.13.304 81.74c-.442-1.176-.41-2.535.14-3.67.532-1.132 1.46-2.027 2.482-2.722 2.365-1.633 4.973-2.878 7.616-3.99 2.277-.97 4.64-1.727 6.964-2.575zM94.21 64.52c2.16-.25 4.337-.31 6.51-.387 7.15.027 14.338.917 21.178 3.062 1.342.408 2.642.936 3.98 1.362 2.382.87 4.768 1.927 6.676 3.64 1.147 1.046 2.135 2.455 2.15 4.064.067 1.31-.526 2.566-1.375 3.532-1.617 1.812-3.753 3.057-5.898 4.143-2.283 1.164-4.737 1.915-7.13 2.8-14.613 5.248-29.226 10.493-43.836 15.746-.002-4.092.004-8.184-.002-12.275.022-.163-.068-.448.163-.49 11.118-3.957 22.233-7.924 33.35-11.89 1.502-.562 3.12-.97 4.397-1.99.522-.41 1.033-1.06.777-1.764-.266-.614-.904-.955-1.49-1.21-1.665-.658-3.477-.786-5.247-.835-2.77.02-5.567.36-8.202 1.25-7.918 2.774-15.823 5.583-23.744 8.35 0-4.396-.002-8.788.002-13.182 5.73-2.01 11.715-3.23 17.74-3.923zM126.692 94.796c1.73-.216 3.535.56 4.57 1.96 1.132 1.447 1.34 3.533.54 5.185-.806 1.715-2.65 2.916-4.56 2.853-1.756.04-3.458-.984-4.323-2.5-.783-1.334-.876-3.043-.27-4.463.68-1.64 2.28-2.836 4.042-3.034zm-.376.923c-.968.22-1.847.806-2.425 1.613-.694.95-.957 2.205-.693 3.354.222 1.067.897 2.02 1.808 2.61 1.403.923 3.37.872 4.712-.14 1.385-.98 2.043-2.858 1.567-4.485-.294-1.1-1.08-2.036-2.07-2.58-.88-.47-1.93-.604-2.898-.373zM125.118 96.896c.9-.005 1.805 0 2.707-.003.51.007 1.072.126 1.433.517.364.41.393 1.008.293 1.523-.055.34-.355.54-.572.78.19.166.43.323.475.595.104.52-.006 1.068.16 1.578.106.18.213.362.22.578-.373.01-.746.003-1.12.01-.252-.594-.064-1.26-.22-1.872-.063-.25-.32-.404-.567-.396-.61-.026-1.222-.008-1.83-.01-.01.76.022 1.52-.018 2.277-.318-.005-.637-.005-.955 0-.016-1.86-.005-3.718-.005-5.577zm.978.884v1.54c.545.004 1.09.008 1.638.003.27-.002.586-.053.762-.283.185-.293.18-.683.014-.98-.14-.236-.437-.26-.68-.274-.58-.017-1.157-.007-1.734-.006z"/></symbol><symbol viewBox="0 0 300 300" id="sprite-icon-telegram"><path d="M5.3 144.645l69.125 25.8 26.756 86.047c1.713 5.51 8.452 7.548 12.925 3.89l38.532-31.41c4.04-3.292 9.792-3.456 14.013-.392l69.498 50.457c4.785 3.478 11.564.856 12.764-4.926l50.91-244.89c1.31-6.316-4.895-11.585-10.91-9.26L5.22 129.403c-7 2.7-6.94 12.612.08 15.243zm91.57 12.066l135.097-83.206c2.428-1.49 4.926 1.792 2.84 3.726L123.314 180.87c-3.92 3.648-6.447 8.53-7.163 13.83l-3.798 28.145c-.503 3.758-5.782 4.13-6.82.494l-14.606-51.326c-1.673-5.854.765-12.107 5.943-15.303z"/></symbol><symbol viewBox="0 0 612 612" id="sprite-icon-twitter"><path d="M612 116.258c-22.525 9.98-46.694 16.75-72.088 19.772 25.93-15.527 45.777-40.155 55.184-69.41-24.322 14.378-51.17 24.82-79.775 30.48-22.906-24.438-55.49-39.66-91.63-39.66-69.333 0-125.55 56.218-125.55 125.514 0 9.828 1.11 19.427 3.25 28.606-104.325-5.24-196.834-55.223-258.75-131.174-10.822 18.51-16.98 40.078-16.98 63.1 0 43.56 22.182 81.994 55.836 104.48-20.575-.688-39.926-6.348-56.867-15.756v1.568c0 60.806 43.29 111.554 100.692 123.104-10.517 2.83-21.607 4.398-33.08 4.398-8.107 0-15.947-.803-23.634-2.333 15.985 49.907 62.336 86.2 117.253 87.194-42.946 33.655-97.098 53.656-155.915 53.656-10.134 0-20.116-.612-29.944-1.72 55.568 35.68 121.537 56.484 192.44 56.484 230.947 0 357.187-191.29 357.187-357.188l-.42-16.253C573.87 163.525 595.21 141.42 612 116.257z"/></symbol><symbol viewBox="0 0 512 125" id="sprite-icon-typescript"><path d="M63.818 11.338H37.254V93.62H26.402V11.34H0V1.62h63.818v9.718zm50.05 16.522l-30.29 76.29c-5.345 13.605-12.957 20.408-22.676 20.408-2.753 0-5.02-.324-6.803-.81v-9.394c2.267.81 4.373 1.134 6.154 1.134 5.345 0 9.233-3.24 11.986-9.557l5.184-12.47-25.592-65.6h11.662L81.31 78.395c.163.648.65 2.268 1.297 5.022h.324c.163-.972.65-2.592 1.297-4.86l18.627-50.697h11.014zm17.17 56.205h-.325v39.683h-10.528V27.86h10.528v11.5h.324c5.183-8.747 12.796-13.12 22.676-13.12 8.423 0 15.064 2.915 19.76 8.746 4.698 5.83 7.128 13.768 7.128 23.65 0 11.013-2.752 19.76-8.098 26.4-5.345 6.64-12.634 9.88-21.866 9.88-8.26.325-14.902-3.4-19.6-10.85zm-.163-26.402v9.232c0 5.507 1.782 10.043 5.345 13.768 3.564 3.725 7.937 5.67 13.444 5.67 6.317 0 11.338-2.43 15.064-7.29 3.563-4.86 5.345-11.662 5.345-20.408 0-7.29-1.62-13.12-5.02-17.17-3.403-4.21-7.938-6.155-13.77-6.155-6.154 0-11.013 2.106-14.74 6.317-3.886 4.212-5.668 9.557-5.668 16.036zm114.192 5.67h-46.325c.162 7.288 2.106 12.957 5.83 17.006 3.727 4.048 8.91 5.992 15.55 5.992 7.452 0 14.254-2.43 20.41-7.29v9.882c-5.832 4.21-13.444 6.317-22.84 6.317-9.23 0-16.52-2.915-21.865-8.908-5.346-5.993-7.937-14.416-7.937-25.106 0-10.204 2.915-18.627 8.747-24.944 5.83-6.48 12.957-9.718 21.542-9.718 8.584 0 15.225 2.753 19.922 8.422 4.697 5.508 7.127 13.282 7.127 23.163l-.163 5.182zm-10.853-8.91c0-6.155-1.457-10.852-4.373-14.253-2.914-3.402-6.964-5.022-11.985-5.022-5.02 0-9.232 1.782-12.634 5.346-3.4 3.563-5.668 8.26-6.478 13.93h35.472zm16.036 35.96v-7.29c6.64 4.21 13.282 6.317 20.085 6.317 7.127 0 12.634-1.458 16.36-4.536 3.724-3.077 5.506-7.126 5.506-12.472 0-4.697-1.295-8.422-3.724-11.338-2.43-2.753-7.937-6.64-16.198-11.5-9.394-5.507-15.225-10.042-17.655-13.606-2.43-3.725-3.725-7.936-3.725-12.634 0-6.48 2.59-11.986 7.613-16.52C263.533 2.267 270.336 0 278.758 0c5.507 0 11.015.972 16.36 2.754v6.64c-5.345-2.43-11.176-3.725-17.33-3.725-6.318 0-11.178 1.62-14.903 4.696-3.726 3.24-5.507 7.127-5.507 11.986 0 4.698 1.296 8.423 3.725 11.177 2.43 2.752 7.937 6.64 16.198 11.337 8.584 4.86 14.253 9.232 17.17 12.958 2.914 3.725 4.21 8.098 4.21 13.12 0 7.126-2.43 12.796-7.29 17.33-4.858 4.536-11.823 6.642-20.73 6.642-3.24 0-6.804-.486-11.016-1.458-4.21-.973-7.288-1.783-9.394-3.078zm103.177.322c-4.86 2.916-10.69 4.536-17.493 4.536-8.908 0-16.197-3.077-21.704-9.232-5.507-6.155-8.26-14.092-8.26-24.134 0-10.366 3.077-18.95 9.232-25.592 6.155-6.64 14.09-10.042 23.81-10.042 5.02 0 9.88.972 14.577 3.077v6.64c-4.698-2.914-9.88-4.372-15.388-4.372-7.775 0-13.93 2.754-18.79 8.26-4.858 5.508-7.126 12.797-7.126 21.543 0 8.585 2.268 15.388 6.64 20.57 4.374 5.184 10.205 7.776 17.332 7.776 6.64 0 12.31-1.782 17.17-5.184v6.155zm39.198-56.69c-1.944-1.458-4.21-2.106-6.965-2.106-5.183 0-9.556 2.752-12.958 8.098-3.563 5.345-5.183 12.958-5.183 22.838v30.937h-5.832V27.86h5.83v14.577h.325c1.458-5.02 3.887-8.908 7.127-11.662 3.24-2.753 6.965-4.21 11.338-4.21 2.43 0 4.697.323 6.48 1.133v6.317h-.163zm9.395-22.677c-1.296 0-2.43-.486-3.402-1.458-.972-.97-1.458-2.105-1.458-3.563 0-1.458.486-2.592 1.458-3.4.972-.81 2.106-1.297 3.402-1.297 1.295 0 2.43.486 3.563 1.296.972.81 1.458 1.943 1.458 3.4 0 1.297-.485 2.593-1.457 3.564-1.134.972-2.268 1.458-3.563 1.458zm-2.916 82.283V27.86h5.83v65.76h-5.83zm26.078-11.66h-.324v41.95h-5.83V27.86h5.83v13.605h.324c2.43-4.86 5.67-8.584 10.042-11.176 4.374-2.592 9.233-3.888 14.416-3.888 8.423 0 14.902 2.915 19.6 8.584 4.696 5.83 6.964 13.606 6.964 23.487 0 11.014-2.754 19.922-8.1 26.725-5.344 6.803-12.47 10.205-21.218 10.205-9.718-.162-17.007-4.536-21.704-13.444zm-.324-24.46v8.26c0 6.642 2.106 12.31 6.155 17.01 4.21 4.696 9.556 7.126 16.36 7.126 6.64 0 12.147-2.916 16.36-8.585 4.21-5.83 6.316-13.28 6.316-22.675 0-8.26-1.945-14.74-5.832-19.6-3.888-4.858-8.91-7.288-15.388-7.288-7.613 0-13.606 2.592-17.817 7.775-4.21 5.183-6.155 11.014-6.155 17.98zM512 92.65c-3.078 1.457-5.993 2.105-8.585 2.105-9.718 0-14.577-5.83-14.577-17.493V33.367h-11.824v-5.345h11.824v-17.17l2.915-.972 2.916-.97V28.02H512v5.345h-17.33v43.41c0 4.534.647 7.773 2.104 9.88 1.458 2.105 3.888 3.077 7.29 3.077 2.43 0 5.02-.81 7.936-2.43v5.345z"/></symbol><symbol viewBox="0 0 55.244 15.1" id="sprite-icon-Valve-logo"><path d="M.002.05L53.11.09V15.1H0L.002.05zm1.53 1.612v11.904h50.046V1.662H1.53"/><path d="M16.668 3.192h2.382l2.508 8.846h-1.785l-.596-2.21H16.54s-.456 1.777-.553 2.167c-.53.042-1.827 0-1.827 0l2.508-8.803zm1.148 1.49l-.936 3.74h1.956l-1.02-3.74"/><path d="M44.05 3.192h3.658v1.15h-2.383v1.273h2.17v1.15h-2.17V8.08h2.383v1.15h-3.7l.042-6.038"/><path d="M33.42 3.192h1.788l1.7 6.592 1.658-6.592h1.786l-2.68 8.846h-1.574L33.42 3.192"/><path d="M25.896 3.192h1.702v7.356h3.696v1.49h-5.44c0-2.927-.075-5.995.042-8.846"/><path d="M4.634 3.192H6.38l1.7 6.676 1.657-6.676h1.83l-2.68 8.846H7.27L4.634 3.192"/><path d="M54.378 0c.48 0 .865.393.865.883 0 .498-.385.886-.87.886-.48 0-.874-.39-.874-.887 0-.49.392-.883.873-.883h.01zm-.01.14c-.387 0-.705.332-.705.743 0 .422.318.746.71.746.392.005.704-.325.704-.74 0-.418-.313-.75-.703-.75h-.01zm-.165 1.255h-.154V.412c.08-.01.157-.023.276-.023.147 0 .246.032.305.072.06.044.09.11.09.204 0 .13-.085.208-.19.24v.008c.086.016.145.096.166.237.022.154.045.214.06.244h-.163c-.02-.03-.044-.12-.063-.247-.02-.127-.086-.174-.21-.174h-.11v.422zm0-.543h.114c.128 0 .238-.048.238-.17 0-.085-.063-.17-.238-.17-.05 0-.086.002-.114.007V.85"/></symbol><symbol viewBox="0 0 56.48 56.48" id="sprite-icon-visa"><path d="M55.026 9.94H1.454C.65 9.94 0 10.59 0 11.392v33.695c0 .803.65 1.454 1.454 1.454h53.572c.804 0 1.454-.65 1.454-1.454V11.393c0-.803-.65-1.454-1.454-1.454zM4.373 21H10.4c.814.03 1.47.29 1.695 1.16l1.31 6.304c-1.287-3.298-4.39-6.042-9.082-7.178l.05-.286zm7.294 14.38L8.185 23.484c2.503 1.602 4.635 4.144 5.386 5.913l.407 1.47 3.808-9.73h4.12l-6.123 14.24-4.115.003zm13.266.01h-3.888l2.43-14.268h3.89L24.934 35.39zm6.766.214c-1.744-.018-3.423-.363-4.333-.762l.547-3.193.5.226c1.278.533 2.105.75 3.662.75 1.117 0 2.314-.438 2.325-1.394.008-.625-.5-1.07-2.014-1.77-1.476-.683-3.43-1.827-3.406-3.876.02-2.773 2.73-4.708 6.572-4.708 1.506 0 2.713.31 3.483.6l-.525 3.092-.35-.165c-.717-.288-1.638-.566-2.91-.546-1.523 0-2.23.633-2.23 1.226-.007.668.825 1.108 2.185 1.77 2.243 1.018 3.28 2.253 3.266 3.876-.03 2.96-2.682 4.872-6.77 4.872zm16.85-.208s-.356-1.64-.474-2.138l-4.98-.006c-.15.385-.817 2.144-.817 2.144h-4.084L43.97 22.32c.41-.928 1.104-1.183 2.036-1.183h3.004l3.147 14.258H48.55zM46.542 26.215l-.262-1.23c-.198.537-.54 1.4-.517 1.362l-1.55 3.988h3.23l-.9-4.12z"/></symbol><symbol viewBox="0 0 256 137" id="sprite-icon-w3c"><path d="M67.654 1.61l24.22 82.354L116.1 1.61h17.53L93.54 136.91h-1.67L66.814 53.066 41.757 136.91h-1.67L0 1.61h17.54l24.217 82.354L58.13 28.51 50.11 1.613h17.542V1.61zM183.427 93.48c0 12.255-3.26 22.555-9.763 30.908-6.52 8.35-14.958 12.523-25.313 12.523-7.793 0-14.58-2.485-20.374-7.432-5.793-4.96-10.08-11.67-12.862-20.123l13.693-5.68c2.01 5.124 4.652 9.16 7.937 12.103 3.285 2.95 7.148 4.432 11.607 4.432 4.678 0 8.635-2.623 11.866-7.853 3.23-5.233 4.84-11.52 4.84-18.876 0-8.13-1.728-14.413-5.183-18.87-4.006-5.23-10.3-7.855-18.868-7.855h-6.68V58.74l23.383-40.422h-28.234L121.62 31.68h-5.004V1.61h65.136v8.182l-24.717 42.6c8.682 2.782 15.252 7.853 19.707 15.202 4.458 7.347 6.685 15.968 6.685 25.885zM251.404.853l2.84 17.268-10.056 19.242s-3.863-8.16-10.274-12.678c-5.407-3.812-8.93-4.636-14.43-3.505-7.08 1.464-15.09 9.913-18.587 20.338-4.185 12.47-4.225 18.508-4.373 24.05-.23 8.89 1.164 14.14 1.164 14.14s-6.104-11.295-6.045-27.84c.036-11.81 1.9-22.523 7.36-33.087 4.81-9.29 11.947-14.865 18.29-15.515 6.553-.69 11.742 2.467 15.743 5.9 4.195 3.59 8.46 11.44 8.46 11.44L251.403.852zM252.633 98.583s-4.433 7.945-7.206 11.003c-2.77 3.06-7.728 8.45-13.846 11.154-6.12 2.696-9.328 3.208-15.38 2.622-6.045-.582-11.66-4.08-13.627-5.55-1.965-1.45-7-5.75-9.832-9.746-2.85-4.016-7.296-12.037-7.296-12.037s2.476 8.032 4.03 11.442c.888 1.96 3.634 7.96 7.528 13.195 3.624 4.87 10.67 13.26 21.387 15.15 10.713 1.897 18.074-2.91 19.89-4.078 1.822-1.162 5.66-4.374 8.096-6.98 2.538-2.71 4.938-6.18 6.257-8.247.978-1.522 2.562-4.59 2.562-4.59l-2.562-13.34z"/></symbol><symbol viewBox="0 0 256 192" id="sprite-icon-wifi"><path d="M198.75 31.302C181.264 12.072 156.04 0 128 0S74.737 12.072 57.25 31.302h141.5zM57.25 159.91c17.487 19.23 42.71 31.3 70.75 31.3s53.263-12.07 70.75-31.3H57.25zM42.463 39.43C19.012 39.43 0 58.444 0 81.897v27.42c0 23.452 19.012 42.464 42.464 42.464h171.072c23.452 0 42.464-19.012 42.464-42.464v-27.42c0-23.453-19.012-42.465-42.464-42.465H42.464zm209.168 41.98c0-20.772-16.84-37.61-37.61-37.61h-42.466c-20.772 0-37.61 16.838-37.61 37.61v28.512c0 20.773-16.84 37.612-37.612 37.612H214.02c20.773 0 37.612-16.84 37.612-37.612V81.41zM104.1 83.958v40.16h12.13v-40.16H104.1zm-1.215-12.678c0 3.987 3.232 7.22 7.22 7.22 3.986 0 7.218-3.233 7.218-7.22 0-3.987-3.232-7.22-7.22-7.22-3.986 0-7.218 3.233-7.218 7.22zM21.96 65.517l15.65 58.6h10.072L59.45 83.595l11.77 40.524h10.433l15.41-58.6h-11.77l-8.978 38.58-11.162-38.58H54.355l-11.163 37.61-8.492-37.61H21.96zm131.276 0v58.6h12.86v-22.93h29.12v-11.89h-29.12v-11.89h31.06v-11.89h-43.92zm52.656 18.44v40.16h12.133v-40.16h-12.133zm-1.092-12.8c0 3.988 3.232 7.22 7.22 7.22 3.986 0 7.218-3.232 7.218-7.22 0-3.986-3.232-7.218-7.22-7.218-3.986 0-7.218 3.23-7.218 7.218z" fill-rule="evenodd"/></symbol><symbol viewBox="0 0 480 480" id="sprite-icon-windows"><path d="M.176 224L0 67.963 192 41.89V224H.177zM224 37.24L479.938 0v224H224V37.24zM480 256l-.063 224L224 443.992V256h256zM192 439.918L.158 413.62.147 256H192v183.918z"/></symbol><symbol viewBox="0 0 92.65 92.651" id="sprite-icon-won"><path d="M90.75 46.272H77.58l1.88-7.603h11.29c1.05 0 1.9-.853 1.9-1.902 0-1.05-.852-1.9-1.9-1.9H80.4l2.292-9.27c.583-2.39.88-4.128.88-5.162 0-1.283-.432-2.315-1.318-3.158-.904-.858-1.978-1.276-3.283-1.276-1.28 0-2.24.306-2.853.908-.716.706-1.205 1.476-1.494 2.355-.333 1.01-.69 2.436-1.067 4.237l-2.55 11.366H56.714l-2.44-9.013c-.736-2.695-1.327-4.646-1.755-5.798-.373-1.002-1.067-1.955-2.065-2.833-.923-.81-2.29-1.223-4.064-1.223-1.765 0-3.15.4-4.12 1.19-1.03.837-1.778 1.837-2.228 2.97-.505 1.28-1.092 3.192-1.742 5.685l-2.42 9.022H21.645L19.1 23.517c-.558-2.632-1.204-4.638-1.923-5.975-.206-.38-.832-1.542-3.496-1.542-1.327 0-2.405.42-3.292 1.286-.88.857-1.308 1.89-1.308 3.148 0 1.144.295 2.876.877 5.152l2.294 9.28H1.9c-1.05 0-1.9.85-1.9 1.9s.85 1.9 1.9 1.9h11.29l1.88 7.602H1.9c-1.05 0-1.9.853-1.9 1.9 0 1.05.85 1.9 1.9 1.9h14.11l4.09 16.545c.302 1.21.646 2.523 1.032 3.943.358 1.318.82 2.467 1.375 3.41.51.868 1.152 1.52 1.964 1.987.8.46 1.867.695 3.175.695 1.613 0 2.847-.38 3.773-1.158.976-.82 1.665-1.75 2.047-2.76.443-1.167 1.054-3.14 1.816-5.863l4.588-16.8h12.97l4.533 16.81c.79 2.8 1.408 4.802 1.836 5.94.368.978 1.048 1.882 2.02 2.687.915.76 2.187 1.145 3.78 1.145 1.69 0 2.986-.393 3.854-1.16.938-.83 1.61-1.81 2-2.9.44-1.248 1.012-3.26 1.69-5.98l4.09-16.543h14.11c1.05 0 1.9-.85 1.9-1.9 0-1.043-.85-1.895-1.9-1.895zM70.153 38.67l-1.705 7.602h-8.646l-2.06-7.602h12.41zM46.395 26.173l2.344 8.695h-4.72l2.375-8.695zM22.498 38.67h12.358l-2.04 7.602h-8.613l-1.705-7.602zm5.627 25.082l-3.07-13.68h6.74l-3.67 13.68zm12.782-17.48l2.075-7.603h6.78l2.052 7.602H40.907zM64.532 63.73l-3.7-13.657h6.764L64.532 63.73z"/></symbol><symbol viewBox="0 0 512 117" id="sprite-icon-wordpress"><path d="M296.95 45.726h-20.155v2.138c6.304 0 7.318 1.35 7.318 9.346v14.413c0 7.994-1.013 9.458-7.318 9.458-4.84-.674-8.107-3.265-12.61-8.22l-5.18-5.628c6.98-1.24 10.696-5.63 10.696-10.585 0-6.19-5.29-10.92-15.2-10.92h-19.815v2.137c6.304 0 7.318 1.35 7.318 9.346v14.413c0 7.994-1.014 9.458-7.318 9.458v2.14h22.405v-2.14c-6.304 0-7.317-1.463-7.317-9.457V67.57h1.913l12.498 15.65h32.766c16.1 0 23.08-8.556 23.08-18.804 0-10.246-6.98-18.69-23.08-18.69zm-47.176 18.352V49.104h4.615c5.065 0 7.318 3.49 7.318 7.544 0 3.94-2.253 7.43-7.32 7.43h-4.614zm47.514 15.652h-.79c-4.05 0-4.614-1.013-4.614-6.193V49.104h5.404c11.71 0 13.848 8.556 13.848 15.2 0 6.868-2.14 15.426-13.848 15.426zM171.973 68.246l7.77-22.97c2.252-6.644 1.238-8.557-5.968-8.557v-2.254h21.167v2.253c-7.093 0-8.78 1.687-11.596 9.907L170.51 85.134h-1.464L157.56 49.89l-11.71 35.244h-1.463L131.89 46.627c-2.702-8.22-4.504-9.908-11.035-9.908v-2.254h24.996v2.253c-6.642 0-8.445 1.575-6.08 8.555l7.544 22.97 11.372-33.78h2.14l11.147 33.78zm38.28 16.437c-12.385 0-22.518-9.12-22.518-20.268 0-11.033 10.134-20.155 22.518-20.155 12.386 0 22.518 9.122 22.518 20.155 0 11.148-10.13 20.268-22.517 20.268zm0-36.93c-10.358 0-13.96 9.344-13.96 16.663 0 7.433 3.602 16.665 13.96 16.665 10.472 0 14.075-9.23 14.075-16.664 0-7.32-3.603-16.663-14.075-16.663zM347.84 80.968v2.252h-25.784v-2.252c7.545 0 8.896-1.914 8.896-13.175V49.78c0-11.262-1.35-13.062-8.896-13.062v-2.253h23.307c11.596 0 18.016 5.968 18.016 13.963 0 7.77-6.42 13.85-18.017 13.85h-6.418v5.514c0 11.262 1.35 13.176 8.895 13.176zm-2.477-42.45h-6.418V58.11h6.418c6.306 0 9.233-4.39 9.233-9.682 0-5.404-2.927-9.91-9.233-9.91zm95.366 34.118l-.564 2.027c-1.013 3.715-2.253 5.067-10.247 5.067h-1.578c-5.853 0-6.867-1.352-6.867-9.345v-5.18c8.783 0 9.46.788 9.46 6.644h2.138V55.07h-2.14c0 5.856-.675 6.644-9.458 6.644v-12.61h6.19c7.997 0 9.234 1.352 10.248 5.067l.564 2.14h1.8l-.786-10.584h-33.103v2.138c6.304 0 7.32 1.35 7.32 9.346v14.413c0 7.313-.862 9.155-5.833 9.418-4.725-.72-7.968-3.298-12.407-8.18l-5.18-5.628c6.982-1.24 10.698-5.63 10.698-10.585 0-6.19-5.292-10.92-15.2-10.92H365.97v2.137c6.303 0 7.317 1.35 7.317 9.346v14.413c0 7.994-1.013 9.458-7.318 9.458v2.14h22.405v-2.14c-6.304 0-7.318-1.463-7.318-9.457V67.57h1.914l12.498 15.65h46.276l.676-10.583h-1.69zm-59.674-8.558V49.104h4.615c5.068 0 7.32 3.49 7.32 7.544 0 3.94-2.252 7.43-7.32 7.43h-4.614zm82.53 20.605c-4.505 0-8.446-2.364-10.135-3.83-.562.565-1.575 2.254-1.8 3.83h-2.14V69.146h2.253c.9 7.43 6.08 11.822 12.723 11.822 3.603 0 6.53-2.026 6.53-5.404 0-2.927-2.59-5.18-7.205-7.318l-6.417-3.04c-4.505-2.14-7.882-5.857-7.882-10.81 0-5.404 5.068-10.02 12.05-10.02 3.715 0 6.866 1.35 8.782 2.927.562-.45 1.125-1.69 1.463-3.042h2.14v13.29h-2.365c-.79-5.294-3.716-9.685-9.683-9.685-3.152 0-6.08 1.802-6.08 4.618 0 2.927 2.364 4.502 7.77 6.98l6.19 3.04c5.406 2.59 7.544 6.757 7.544 10.134 0 7.093-6.192 12.046-13.735 12.046zm34.677 0c-4.504 0-8.446-2.364-10.133-3.83-.564.565-1.576 2.254-1.8 3.83h-2.14V69.146h2.25c.902 7.43 6.08 11.822 12.724 11.822 3.603 0 6.53-2.026 6.53-5.404 0-2.927-2.588-5.18-7.206-7.318l-6.418-3.04c-4.504-2.14-7.882-5.857-7.882-10.81 0-5.404 5.067-10.02 12.048-10.02 3.716 0 6.868 1.35 8.783 2.927.56-.45 1.124-1.69 1.46-3.042h2.14v13.29h-2.363c-.79-5.294-3.716-9.685-9.682-9.685-3.153 0-6.082 1.802-6.082 4.618 0 2.927 2.365 4.502 7.77 6.98l6.192 3.04c5.405 2.59 7.543 6.757 7.543 10.134 0 7.093-6.192 12.046-13.735 12.046zM8.256 58.083c0 19.724 11.463 36.768 28.084 44.846L12.57 37.803c-2.764 6.198-4.314 13.055-4.314 20.28zm83.468-2.514c0-6.16-2.212-10.424-4.11-13.744-2.526-4.104-4.893-7.58-4.893-11.684 0-4.58 3.475-8.845 8.368-8.845.22 0 .43.028.646.04-8.865-8.122-20.676-13.08-33.65-13.08-17.407 0-32.722 8.93-41.632 22.46 1.17.034 2.27.06 3.207.06 5.21 0 13.28-.634 13.28-.634 2.685-.158 3 3.787.318 4.105 0 0-2.7.318-5.703.475L45.7 88.696l10.905-32.704-7.763-21.27c-2.683-.158-5.225-.476-5.225-.476-2.686-.157-2.37-4.263.314-4.104 0 0 8.23.632 13.127.632 5.21 0 13.28-.632 13.28-.632 2.687-.16 3.003 3.786.32 4.104 0 0-2.706.318-5.704.475L82.96 88.287l4.97-16.61c2.154-6.89 3.794-11.84 3.794-16.107zM58.96 62.44l-14.95 43.443c4.463 1.312 9.184 2.03 14.075 2.03 5.803 0 11.368-1.003 16.547-2.825-.133-.213-.255-.44-.354-.686l-15.32-41.962zm42.848-28.265c.214 1.587.336 3.29.336 5.124 0 5.057-.945 10.74-3.79 17.848l-15.22 44.007c14.814-8.64 24.778-24.688 24.778-43.07 0-8.664-2.212-16.81-6.104-23.908zM58.085 0C26.058 0 0 26.056 0 58.083c0 32.032 26.058 58.087 58.085 58.087s58.088-26.055 58.088-58.087C116.173 26.056 90.113 0 58.085 0zm0 113.507c-30.558 0-55.422-24.863-55.422-55.424 0-30.558 24.863-55.42 55.422-55.42 30.558 0 55.42 24.862 55.42 55.42 0 30.56-24.862 55.424-55.42 55.424z"/></symbol><symbol viewBox="0 0 512 512" id="sprite-icon-youtube"><path d="M490.24 113.92c-13.888-24.704-28.96-29.248-59.648-30.976C399.936 80.864 322.848 80 256.064 80c-66.912 0-144.032.864-174.656 2.912-30.624 1.76-45.728 6.272-59.744 31.008C7.36 138.592 0 181.088 0 255.904v.256c0 74.496 7.36 117.312 21.664 141.728 14.016 24.704 29.088 29.184 59.712 31.264C112.032 430.944 189.152 432 256.064 432c66.784 0 143.872-1.056 174.56-2.816 30.688-2.08 45.76-6.56 59.648-31.264C504.704 373.504 512 330.688 512 256.192v-.256c0-74.848-7.296-117.344-21.76-142.016zM192 352V160l160 96-160 96z"/></symbol></svg>