<svg width="512" height="211" viewBox="0 0 512 211" xmlns="http://www.w3.org/2000/svg" preserveAspectRatio="xMidYMid"><path d="M93.552 27.103c-6 7.1-15.602 12.702-25.203 11.9-1.2-9.6 3.5-19.8 9-26.102C83.35 5.6 93.852.4 102.353 0c1 10-2.9 19.802-8.8 27.103zm8.7 13.802c-13.9-.8-25.802 7.9-32.403 7.9-6.7 0-16.803-7.5-27.804-7.3-14.3.2-27.603 8.3-34.904 21.202-15.002 25.803-3.9 64.008 10.6 85.01 7.102 10.4 15.603 21.802 26.804 21.402 10.602-.4 14.802-6.9 27.604-6.9 12.9 0 16.602 6.9 27.803 6.7 11.6-.2 18.902-10.402 26.003-20.803 8.1-11.8 11.4-23.303 11.6-23.903-.2-.2-22.4-8.7-22.6-34.304-.202-21.402 17.5-31.603 18.3-32.203-10-14.802-25.602-16.402-31.003-16.802zm80.31-29.004v155.92h24.203v-53.307h33.504c30.602 0 52.105-21.002 52.105-51.406 0-30.403-21.103-51.206-51.306-51.206H182.56zm24.203 20.404h27.903c21.003 0 33.004 11.2 33.004 30.903 0 19.702-12 31.004-33.104 31.004h-27.803V32.305zM336.58 169.02c15.202 0 29.303-7.702 35.704-19.903h.5v18.702h22.403V90.21c0-22.502-18.002-37.004-45.706-37.004-25.702 0-44.704 14.702-45.404 34.904h21.803c1.8-9.6 10.7-15.902 22.9-15.902 14.803 0 23.104 6.9 23.104 19.603v8.602l-30.204 1.8c-28.103 1.7-43.304 13.2-43.304 33.204 0 20.202 15.7 33.603 38.204 33.603zm6.5-18.503c-12.9 0-21.102-6.2-21.102-15.702 0-9.8 7.9-15.5 23.003-16.4l26.904-1.702v8.8c0 14.603-12.4 25.004-28.803 25.004zm82.01 59.707c23.603 0 34.704-9 44.405-36.304L512 54.706h-24.603l-28.503 92.11h-.5l-28.503-92.11H404.59l41.004 113.513-2.2 6.9c-3.7 11.7-9.7 16.202-20.402 16.202-1.9 0-5.6-.2-7.1-.4v18.702c1.4.4 7.4.6 9.2.6z"/></svg>