<svg width="512" height="138" viewBox="0 0 512 138" xmlns="http://www.w3.org/2000/svg" preserveAspectRatio="xMidYMid"><path d="M340.657 0v100.203c12.36.575 24.687 1.27 36.98 2.09v21.245c-19.433-1.296-38.947-2.285-58.542-2.96V0h21.562zM512 .012l-28.077 65.094 28.07 72.438-.03.013c-8.178-1.166-16.365-2.267-24.577-3.323l-15.763-40.656-15.913 36.882c-7.542-.833-15.093-1.62-22.662-2.36l27.37-63.43L435.353.013h23.325l14.035 36.184L488.318.012H512zM245.093 119.526V.01h60.19v21.437h-38.628v27.78h29.227v21.245h-29.227v49.05l-21.562.004zM164.58 21.448V.01h66.69v21.437h-22.565v98.66c-7.197.19-14.386.412-21.56.683V21.448H164.58zM90.868 126.966V.014h59.89V21.45h-38.33v29.035c8.805-.113 21.326-.24 29.116-.222V71.51c-9.75-.122-20.758.133-29.117.216v32.164c12.74-1.002 25.518-1.88 38.33-2.62v21.247c-20.053 1.155-40.017 2.644-59.89 4.45zM48.57 77.854V.01h21.562v128.96c-7.882.81-15.75 1.672-23.603 2.583l-24.97-71.73v74.803c-7.2.938-14.387 1.915-21.56 2.936V.012h20.49l28.08 77.842zm346.855 46.965V.01h21.563V126.6c-7.18-.64-14.364-1.23-21.563-1.78z"/></svg>